<?xml version="1.0" encoding="iso-8859-1"?>
<!-- Generator: Adobe Illustrator 19.0.0, SVG Export Plug-In . SVG Version: 6.00 Build 0)  -->
<svg version="1.1" id="Layer_1" xmlns="http://www.w3.org/2000/svg" xmlns:xlink="http://www.w3.org/1999/xlink" x="0px" y="0px"
	 viewBox="0 0 511.999 511.999" style="enable-background:new 0 0 511.999 511.999;" xml:space="preserve">
<path style="fill:#F7CB4F;" d="M381.855,301.29c-9.245-6.512-15.291-17.261-15.291-29.43c0-19.871,16.11-35.981,35.981-35.981
	c19.871,0,35.981,16.11,35.981,35.981c0,12.168-6.046,22.917-15.291,29.43h80.917V98.077H300.833v81.331
	c-6.479-9.48-17.268-15.705-29.619-15.705c-19.872,0-35.981,16.109-35.981,35.981c0,19.871,16.11,35.981,35.981,35.981
	c12.35,0,23.139-6.225,29.619-15.706v81.331L381.855,301.29L381.855,301.29z"/>
<rect x="483.114" y="98.072" style="fill:#F4B008;" width="21.042" height="203.212"/>
<path style="fill:#68B9D8;" d="M219.812,301.29c9.245,6.512,15.291,17.261,15.291,29.43c0,19.871-16.109,35.981-35.981,35.981
	c-19.871,0-35.981-16.109-35.981-35.981c0-12.168,6.047-22.917,15.291-29.43H97.516v203.213h203.318v-81.331
	c6.479,9.48,17.268,15.705,29.619,15.705c19.871,0,35.981-16.109,35.981-35.981c0-19.871-16.11-35.981-35.981-35.981
	c-12.35,0-23.139,6.225-29.619,15.705v-81.331L219.812,301.29L219.812,301.29z"/>
<path style="fill:#546F7A;" d="M213.286,131.069c-6.579,9.341-17.547,15.451-29.842,15.451c-20.079,0-36.356-16.278-36.356-36.356
	c0-20.079,16.278-36.356,36.356-36.356c12.294,0,23.262,6.109,29.842,15.451V7.497H7.848v205.332h82.179
	c-9.579,6.547-15.869,17.554-15.869,30.033c0,20.079,16.278,36.356,36.356,36.356c20.079,0,36.357-16.278,36.357-36.356
	c0-12.479-6.29-23.486-15.869-30.033h82.284L213.286,131.069L213.286,131.069z"/>
<g>
	<path style="fill:#465A65;" d="M173.445,75.211c-3.183-0.905-6.532-1.403-9.993-1.403c-20.079,0-36.357,16.278-36.357,36.356
		c0,20.079,16.278,36.356,36.357,36.356c3.461,0,6.81-0.5,9.993-1.403c-15.215-4.345-26.358-18.343-26.358-34.953
		S158.23,79.555,173.445,75.211z"/>
	<path style="fill:#465A65;" d="M131.002,212.829h-19.992c9.579,6.547,15.869,17.554,15.869,30.033
		c0,16.611-11.144,30.609-26.36,34.954c3.178,0.907,6.527,1.403,9.996,1.403c20.079,0,36.357-16.278,36.357-36.356
		C146.87,230.384,140.581,219.377,131.002,212.829z"/>
	<path style="fill:#465A65;" d="M193.294,145.157v67.673h19.992V131.07C208.531,137.82,201.477,142.868,193.294,145.157z"/>
	<path style="fill:#465A65;" d="M193.294,7.497V75.17c8.184,2.289,15.237,7.336,19.992,14.088V7.497H193.294z"/>
</g>
<path style="fill:#F2464F;" d="M300.833,382.207c6.512-9.245,17.366-15.291,29.534-15.291c19.871,0,35.981,16.109,35.981,35.981
	c0,19.871-16.11,35.981-35.981,35.981c-12.168,0-23.022-6.046-29.534-15.291v80.917h203.318V301.29H422.82
	c9.48-6.48,15.705-17.373,15.705-29.724c0-19.871-16.109-35.981-35.981-35.981c-19.871,0-35.981,16.109-35.981,35.981
	c0,12.35,6.225,23.244,15.705,29.724h-81.436v80.917H300.833z"/>
<rect x="483.164" y="301.294" style="fill:#D3333C;" width="20.992" height="203.212"/>
<path d="M154.369,242.863c0-8.058-2.212-15.823-6.236-22.536h65.154c4.141,0,7.497-3.357,7.497-7.497v-81.76
	c0-3.269-2.117-6.16-5.232-7.147c-3.114-0.986-6.512,0.158-8.394,2.83c-5.412,7.684-14.276,12.27-23.713,12.27
	c-15.913,0-28.859-12.946-28.859-28.86c0-15.913,12.946-28.859,28.859-28.859c9.436,0,18.301,4.587,23.713,12.27
	c1.882,2.672,5.279,3.817,8.393,2.831c3.116-0.987,5.233-3.879,5.233-7.147V7.497c0-4.14-3.356-7.497-7.497-7.497H7.848
	C3.707,0,0.351,3.357,0.351,7.497v51.638c0,4.14,3.356,7.497,7.497,7.497s7.497-3.357,7.497-7.497V14.994h190.444v57.403
	c-6.679-3.928-14.378-6.087-22.345-6.087c-24.182,0-43.853,19.672-43.853,43.853s19.672,43.854,43.853,43.854
	c7.967,0,15.666-2.159,22.345-6.087v57.403h-74.787c-3.288,0-6.192,2.142-7.163,5.283c-0.971,3.142,0.219,6.548,2.933,8.404
	c7.892,5.394,12.603,14.307,12.603,23.844c0,15.914-12.946,28.86-28.86,28.86c-15.913,0-28.859-12.946-28.859-28.86
	c0-9.536,4.711-18.451,12.602-23.844c2.714-1.855,3.903-5.262,2.933-8.404c-0.972-3.141-3.876-5.283-7.163-5.283H15.346V84.126
	c0-4.14-3.356-7.497-7.497-7.497s-7.497,3.357-7.497,7.497v128.703c0,4.14,3.356,7.497,7.497,7.497h65.048
	c-4.023,6.713-6.236,14.478-6.236,22.536c0,24.182,19.672,43.854,43.853,43.854S154.369,267.044,154.369,242.863z"/>
<path d="M504.151,185.64c4.141,0,7.497-3.357,7.497-7.497V98.077c0-4.14-3.356-7.497-7.497-7.497H300.833
	c-4.14,0-7.497,3.357-7.497,7.497v64.226c-6.605-3.936-14.224-6.099-22.121-6.099c-23.974,0-43.478,19.504-43.478,43.478
	s19.504,43.478,43.478,43.478c7.897,0,15.515-2.163,22.121-6.099v56.729h-73.525c-3.269,0-6.16,2.117-7.146,5.233
	c-0.988,3.116,0.157,6.512,2.829,8.394c7.585,5.342,12.112,14.053,12.112,23.3c0,15.706-12.778,28.484-28.484,28.484
	s-28.484-12.778-28.484-28.484c0-9.247,4.527-17.958,12.112-23.3c2.672-1.882,3.817-5.278,2.829-8.394
	c-0.987-3.116-3.879-5.233-7.146-5.233H97.515c-4.141,0-7.497,3.357-7.497,7.497v118.394c0,4.14,3.356,7.497,7.497,7.497
	s7.497-3.357,7.497-7.497V308.786h56.584c-3.843,6.571-5.954,14.126-5.954,21.932c0,23.974,19.504,43.478,43.478,43.478
	s43.478-19.504,43.478-43.478c0-7.807-2.111-15.361-5.954-21.932h56.689v73.42v0.414c0,3.288,2.142,6.192,5.283,7.162
	c3.142,0.972,6.547-0.218,8.404-2.933c5.316-7.778,14.058-12.425,23.391-12.437c15.684,0.025,28.437,12.792,28.437,28.483
	c0,15.69-12.753,28.457-28.437,28.482c-9.333-0.013-18.075-4.659-23.392-12.437c-1.854-2.714-5.261-3.904-8.403-2.932
	c-3.142,0.971-5.283,3.875-5.283,7.163v0.414v73.42H105.013v-52.332c0-4.14-3.356-7.497-7.497-7.497s-7.497,3.357-7.497,7.497
	v59.829c0,4.14,3.356,7.497,7.497,7.497h203.317h203.319c4.141,0,7.497-3.357,7.497-7.497V301.29v-98.157
	c0-4.14-3.356-7.497-7.497-7.497s-7.497,3.357-7.497,7.497v90.66h-56.585c3.843-6.571,5.954-14.126,5.954-21.932
	c0-0.056-0.004-0.112-0.004-0.169c0-0.042,0.004-0.084,0.004-0.126c0-23.974-19.504-43.478-43.477-43.478
	c-23.974,0-43.478,19.505-43.478,43.478c0,0.042,0.004,0.084,0.004,0.126c-0.001,0.056-0.004,0.112-0.004,0.169
	c0,7.807,2.111,15.361,5.954,21.932h-56.69v-73.834c0-3.288-2.141-6.192-5.283-7.163c-3.142-0.972-6.549,0.218-8.404,2.933
	c-5.322,7.789-14.081,12.438-23.429,12.438c-15.706,0-28.484-12.778-28.484-28.484s12.778-28.484,28.484-28.484
	c9.348,0,18.106,4.649,23.429,12.437c1.854,2.714,5.26,3.905,8.404,2.933c3.142-0.971,5.283-3.876,5.283-7.163v-73.834h188.325
	v72.568C496.654,182.283,500.011,185.64,504.151,185.64z M381.855,308.787h0.414c3.288,0,6.192-2.142,7.162-5.283
	c0.972-3.142-0.218-6.548-2.932-8.404c-7.752-5.298-12.391-14.039-12.434-23.401c0.088-15.632,12.828-28.323,28.48-28.323
	c15.652,0,28.391,12.691,28.479,28.323c-0.044,9.362-4.682,18.103-12.434,23.401c-2.714,1.855-3.902,5.262-2.932,8.404
	c0.971,3.141,3.875,5.283,7.162,5.283h0.414h73.42v188.219H308.33v-56.598c6.594,3.851,14.186,5.967,22.038,5.967
	c0.016,0,0.033-0.001,0.049-0.001c0.012,0,0.024,0.001,0.036,0.001c23.974,0,43.478-19.504,43.478-43.478
	c0-23.974-19.504-43.478-43.478-43.478c-0.012,0-0.024,0.001-0.036,0.001c-0.016,0-0.033-0.001-0.049-0.001
	c-7.851,0-15.443,2.116-22.038,5.967v-56.598L381.855,308.787L381.855,308.787z"/>
<g>
</g>
<g>
</g>
<g>
</g>
<g>
</g>
<g>
</g>
<g>
</g>
<g>
</g>
<g>
</g>
<g>
</g>
<g>
</g>
<g>
</g>
<g>
</g>
<g>
</g>
<g>
</g>
<g>
</g>
</svg>
