<svg viewBox="0 1 511 511.99996" xmlns="http://www.w3.org/2000/svg"><path d="m509.097656 241.695312c-9.101562-5.949218-28.078125-12.4375-41.488281.976563-3.871094 3.867187-7.273437 10.222656-10.234375 17.851563-11.675781-3.453126-22.328125-1.320313-29.84375 6.195312-9.144531 9.140625-16.820312 32.367188-22.855469 69.085938-14.480469-4.523438-33.273437-2.007813-39.824219 1.921874-15.960937 9.578126-31.269531 19.011719-45.496093 28.042969-13.96875 8.867188-22.230469 24.035157-22.09375 40.582031l.820312 98.195313c.03125 4.128906 3.390625 7.453125 7.511719 7.453125h.0625c4.152344-.035156 7.488281-3.425781 7.453125-7.578125l-.816406-98.195313c-.097657-11.320312 5.554687-21.703124 15.117187-27.769531 14.121094-8.960937 29.320313-18.328125 45.167969-27.835937 3.492187-1.992188 22.113281-4.328125 31.804687 1.300781 2.277344 1.324219 3.707032 2.90625 4.40625 4.933594-30.867187 23.679687-60.140624 52.867187-61.417968 54.144531-2.933594 2.933594-2.933594 7.691406 0 10.625 2.9375 2.933594 7.695312 2.9375 10.628906 0 .316406-.316406 32.074219-31.976562 63.320312-55.410156 3.496094-2.625 3.289063-7.039063 2.550782-10.917969l28.011718-12.257813c2.460938-1.074218 4.160157-3.382812 4.457032-6.050781 2.992187-26.886719 11.582031-73.378906 21.894531-83.691406 5.320313-5.316406 13.269531-3.320313 18.195313-1.261719l-22.417969 104.613282-78.792969 86.671874c-1.226562 1.347657-1.921875 3.097657-1.953125 4.921876l-1.003906 56.109374c-.070313 4.148438 3.230469 7.574219 7.382812 7.648438h.136719c4.085938 0 7.4375-3.277344 7.507812-7.378906l.953126-53.285156 78.253906-86.078126c.894531-.980468 1.507812-2.179687 1.789062-3.480468l24.046875-112.21875c.652344-3.039063-.632812-6.164063-3.234375-7.863282zm-67.175781 89.300782-22.855469 10c5.320313-33.308594 12.378906-56.941406 19.089844-63.652344 4.066406-4.0625 9.601562-3.949219 14.523438-2.554688-6.003907 21.207032-9.464844 45.820313-10.757813 56.207032zm0 0"/><path d="m193.644531 365.765625c-14.230469-9.027344-29.535156-18.460937-45.496093-28.039063-6.550782-3.929687-25.34375-6.445312-39.824219-1.925781-6.035157-36.71875-13.710938-59.945312-22.855469-69.085937-7.515625-7.515625-18.167969-9.648438-29.84375-6.191406-2.960938-7.628907-6.363281-13.984376-10.234375-17.855469-13.414063-13.410157-32.390625-6.921875-41.488281-.976563-2.601563 1.703125-3.886719 4.828125-3.234375 7.867188l24.046875 112.21875c.277344 1.296875.894531 2.496094 1.785156 3.480468l78.257812 86.078126.949219 53.28125c.074219 4.105468 3.421875 7.378906 7.511719 7.378906h.136719c4.148437-.074219 7.453125-3.496094 7.378906-7.648438l-1-56.109375c-.035156-1.820312-.730469-3.570312-1.953125-4.917969l-78.796875-86.675781-22.425781-104.648437c4.90625-2.074219 12.824218-4.082032 18.207031 1.300781 10.308594 10.3125 18.898437 56.804687 21.890625 83.6875.296875 2.671875 1.996094 4.980469 4.457031 6.054687l28.015625 12.257813c-.738281 3.878906-.949218 8.292969 2.550782 10.917969 31.246093 23.433594 63.003906 55.09375 63.320312 55.410156 2.929688 2.933594 7.6875 2.9375 10.625 0 2.933594-2.933594 2.933594-7.691406 0-10.628906-1.277344-1.273438-30.550781-30.460938-61.414062-54.140625.695312-2.027344 2.128906-3.609375 4.40625-4.933594 9.6875-5.628906 28.308593-3.296875 31.796874-1.308594 15.851563 9.511719 31.050782 18.878907 45.175782 27.84375 9.558594 6.066407 15.210937 16.449219 15.117187 27.765625l-.820312 98.199219c-.03125 4.148437 3.304687 7.542969 7.453125 7.574219h.0625c4.121094 0 7.480468-3.324219 7.515625-7.453125l.816406-98.195313c.140625-16.542968-8.117187-31.710937-22.089844-40.582031zm-133.324219-90.976563c4.921876-1.398437 10.457032-1.511718 14.523438 2.554688 6.710938 6.710938 13.769531 30.34375 19.089844 63.652344l-22.855469-10c-1.292969-10.386719-4.753906-35-10.757813-56.207032zm0 0"/><path d="m392.765625 287.5625c4.152344 0 7.515625-3.367188 7.515625-7.515625v-179.351563c0-4.148437-3.363281-7.511718-7.515625-7.511718s-7.515625 3.363281-7.515625 7.511718v171.835938h-49.09375v-30.453125l11.21875 11.21875c3.054688 3.058594 8.214844 2.851563 11.027344-.429687 2.515625-2.941407 2.335937-7.460938-.398438-10.195313l-24.046875-24.046875c-2.9375-2.933594-7.695312-2.933594-10.628906 0l-24.046875 24.046875c-2.933594 2.933594-2.933594 7.691406 0 10.625 2.933594 2.9375 7.691406 2.9375 10.628906 0l11.214844-11.21875v30.453125h-57.109375v-30.453125l11.21875 11.21875c3.054687 3.058594 8.214844 2.851563 11.027344-.429687 2.515625-2.941407 2.335937-7.460938-.398438-10.195313l-24.046875-24.046875c-2.9375-2.933594-7.695312-2.933594-10.628906 0l-24.046875 24.046875c-2.933594 2.933594-2.933594 7.691406 0 10.625 2.933594 2.9375 7.691406 2.9375 10.628906 0l11.214844-11.21875v30.453125h-57.109375v-30.453125l11.21875 11.21875c3.054688 3.058594 8.214844 2.851563 11.027344-.429687 2.515625-2.941407 2.335937-7.460938-.398438-10.195313l-24.046875-24.046875c-2.9375-2.933594-7.695312-2.933594-10.628906 0l-24.046875 24.046875c-2.933594 2.933594-2.933594 7.691406 0 10.625 2.933594 2.9375 7.691406 2.9375 10.628906 0l11.214844-11.21875v30.453125h-49.09375v-97.1875h120.734375c4.152344 0 7.515625-3.367188 7.515625-7.515625v-32.0625c0-4.152344-3.363281-7.515625-7.515625-7.515625h-120.734375v-17.03125h80.65625c4.152344 0 7.515625-3.367188 7.515625-7.515625 0-4.152344-3.363281-7.515625-7.515625-7.515625h-80.65625v-81.15625h97.1875v48.59375c0 5.039062 5.101562 8.722656 9.894531 7.128906l21.667969-7.222656 21.671875 7.222656c4.792969 1.59375 9.890625-2.089844 9.890625-7.128906v-48.59375h97.1875v50.261719c0 4.152343 3.363281 7.515625 7.515625 7.515625s7.515625-3.363282 7.515625-7.515625v-57.777344c0-4.152344-3.363281-7.515625-7.515625-7.515625h-272.53125c-4.152344 0-7.515625 3.363281-7.515625 7.515625v272.53125c0 4.148437 3.363281 7.515625 7.515625 7.515625zm-119.734375-272.53125v38.167969l-14.152344-4.71875c-1.535156-.511719-3.21875-.511719-4.753906 0l-14.15625 4.71875v-38.167969zm-32.0625 128.25v17.03125h-113.21875v-17.03125zm0 0"/><path d="m232.453125 96.1875c-4.152344 0-7.515625 3.363281-7.515625 7.515625 0 4.148437 3.363281 7.515625 7.515625 7.515625h16.03125c4.152344 0 7.515625-3.367188 7.515625-7.515625 0-4.152344-3.363281-7.515625-7.515625-7.515625zm0 0"/></svg>