<?xml version="1.0" encoding="iso-8859-1"?>
<!-- Generator: Adobe Illustrator 19.0.0, SVG Export extension . SVG Version: 6.00 Build 0)  -->
<svg version="1.1" 
	id="Layer_1" 
	xmlns="http://www.w3.org/2000/svg" 
	xmlns:xlink="http://www.w3.org/1999/xlink" 
	x="0px" 
	y="0px" 
	viewBox="0 0 512 512" 
	style="enable-background:new 0 0 512 512;" 
	xml:space="preserve">
	<path style="fill:#AEB9CC;" 
		d="M444.154,247.229v70.967l-209.573,2.669v-73.636c0-44.43,27.654-82.404,66.685-97.647
	c11.812-4.618,24.661-7.144,38.097-7.144h0.01c13.355,0,26.122,2.497,37.863,7.053C416.388,164.672,444.154,202.708,444.154,247.229
	z"/>
	<path style="fill:#C8D0E2;" 
		d="M444.154,278.587v39.609l-209.573,2.669v-42.278c0-44.43,27.654-82.404,66.685-97.647
	c11.812-4.618,24.661-7.144,38.097-7.144h0.01c13.355,0,26.122,2.496,37.863,7.053C416.388,196.03,444.154,234.067,444.154,278.587z
	"/>
	<path style="fill:#EAA96E;" 
		d="M377.236,149.49l-13.071,15.101l-24.793,28.648l-24.975-28.608l-13.132-15.05
	c11.812-4.618,24.661-7.144,38.097-7.144h0.01C352.728,142.436,365.494,144.933,377.236,149.49z"/>
	<g>
		<path style="fill:#FBCB99;" 
			d="M364.165,164.59l-24.793,28.648l-24.975-28.608c7.997-1.958,16.359-2.994,24.965-2.994h0.01
		C347.917,161.637,356.219,162.662,364.165,164.59z"/>
		<path style="fill:#FBCB99;" 
			d="M407.509,74.676c0,1.4-0.04,2.79-0.132,4.171c-0.162,2.679-0.477,5.308-0.944,7.896
		c-1.025,5.744-2.771,11.244-5.145,16.39c-10.768,23.422-34.444,39.69-61.916,39.69c-28.08,0-52.193-16.978-62.616-41.233
		c-2.029-4.708-3.542-9.692-4.455-14.878c-0.457-2.557-0.771-5.155-0.933-7.804c-0.101-1.4-0.142-2.811-0.142-4.232
		c0-37.63,30.506-68.146,68.146-68.146C377.002,6.53,407.509,37.046,407.509,74.676z"/>
	</g>
	<path style="fill:#EAA96E;" 
		d="M406.432,86.743c-1.025,5.744-2.771,11.244-5.145,16.39c-56.952,0.304-81.867-25.005-81.867-25.005
	c-12.939,12.604-29.644,19.627-42.663,23.463c-2.029-4.708-3.542-9.692-4.455-14.878c5.714-31.845,33.57-56.019,67.07-56.019
	C372.872,30.693,400.73,54.887,406.432,86.743z"/>
	<path style="fill:#694B4B;" 
		d="M407.509,74.676c0,1.4-0.04,2.79-0.132,4.171c-61.266,2.222-87.956-24.884-87.956-24.884
	c-3.836,3.735-7.997,6.982-12.3,9.793c-12.31,8.068-25.747,12.635-35.752,15.151c-0.101-1.4-0.142-2.811-0.142-4.232
	c0-37.63,30.506-68.146,68.146-68.146c24.295,0,45.627,12.726,57.684,31.876C403.682,48.91,407.509,61.342,407.509,74.676z"/>
	<path style="fill:#563939;" 
		d="M407.509,74.676c0,1.4-0.04,2.79-0.132,4.171c-61.266,2.222-87.956-24.884-87.956-24.884
	c-3.836,3.735-7.997,6.982-12.3,9.793c11.925-19.809,33.632-33.063,58.434-33.063c11.366,0,22.083,2.781,31.501,7.712
	C403.682,48.91,407.509,61.342,407.509,74.676z"/>
	<path style="fill:#213847;" 
		d="M277.87,247.229v70.967l-209.573,2.669v-73.636c0-44.43,27.654-82.404,66.685-97.647
	c11.812-4.618,24.661-7.144,38.097-7.144h0.01c13.355,0,26.122,2.497,37.863,7.053C250.104,164.672,277.87,202.708,277.87,247.229z" />
	<path style="fill:#324A5E;" 
		d="M277.87,278.587v39.609l-209.573,2.669v-42.278c0-44.43,27.654-82.404,66.685-97.647
	c11.812-4.618,24.661-7.144,38.097-7.144h0.01c13.355,0,26.122,2.496,37.863,7.053C250.104,196.03,277.87,234.067,277.87,278.587z" />
	<path style="fill:#EAA96E;" 
		d="M210.952,149.49l-13.071,15.101l-24.793,28.648l-24.975-28.608l-13.132-15.05
	c11.812-4.618,24.661-7.144,38.097-7.144h0.01C186.443,142.436,199.21,144.933,210.952,149.49z"/>
	<g>
		<path style="fill:#FBCB99;" 
			d="M197.88,164.59l-24.793,28.648l-24.975-28.608c7.997-1.958,16.359-2.994,24.965-2.994h0.01
		C181.633,161.637,189.934,162.662,197.88,164.59z"/>
		<path style="fill:#FBCB99;" 
			d="M241.224,74.676c0,1.4-0.04,2.79-0.132,4.171c-0.162,2.679-0.477,5.308-0.944,7.896
		c-1.025,5.744-2.771,11.244-5.145,16.39c-10.768,23.422-34.444,39.69-61.916,39.69c-28.08,0-52.193-16.978-62.616-41.233
		c-2.029-4.708-3.542-9.692-4.455-14.878c-0.457-2.557-0.771-5.155-0.933-7.804c-0.101-1.4-0.142-2.811-0.142-4.232
		c0-37.63,30.506-68.146,68.146-68.146C210.719,6.53,241.224,37.046,241.224,74.676z"/>
	</g>
	<path style="fill:#EAA96E;" 
		d="M240.149,86.743c-1.025,5.744-2.771,11.244-5.145,16.39c-56.952,0.304-81.867-25.005-81.867-25.005
	c-12.939,12.604-29.643,19.627-42.663,23.463c-2.029-4.708-3.542-9.692-4.455-14.878c5.714-31.845,33.57-56.019,67.071-56.019
	C206.588,30.693,234.445,54.887,240.149,86.743z"/>
	<path style="fill:#694B4B;" 
		d="M241.224,74.676c0,1.4-0.04,2.79-0.132,4.171c-61.266,2.222-87.956-24.884-87.956-24.884
	c-3.836,3.735-7.997,6.982-12.3,9.793c-12.31,8.068-25.747,12.635-35.752,15.151c-0.101-1.4-0.142-2.811-0.142-4.232
	c0-37.63,30.506-68.146,68.146-68.146c24.295,0,45.627,12.726,57.683,31.876C237.399,48.91,241.224,61.342,241.224,74.676z"/>
	<path style="fill:#563939;" 
		d="M241.224,74.676c0,1.4-0.04,2.79-0.132,4.171c-61.266,2.222-87.956-24.884-87.956-24.884
	c-3.836,3.735-7.997,6.982-12.3,9.793c11.925-19.809,33.632-33.063,58.434-33.063c11.366,0,22.083,2.781,31.501,7.712
	C237.399,48.91,241.224,61.342,241.224,74.676z"/>
	<rect x="106.772" 
		y="442.663" 
		width="14.769" 
		height="16.937"/>
	<path style="fill:#C62E1E;" 
		d="M502.732,430.901v70.967l-209.573,2.669v-73.636c0-44.43,27.654-82.404,66.685-97.647
	c11.812-4.618,24.661-7.144,38.097-7.144h0.01c13.355,0,26.122,2.496,37.863,7.053C474.967,348.344,502.732,386.38,502.732,430.901z
	"/>
	<path style="fill:#EF4C35;" 
		d="M502.732,462.259v39.609l-209.573,2.669v-42.278c0-44.43,27.654-82.404,66.685-97.647
	c11.812-4.618,24.661-7.144,38.097-7.144h0.01c13.355,0,26.122,2.497,37.863,7.053C474.967,379.702,502.732,417.739,502.732,462.259
	z"/>
	<path style="fill:#EAA96E;" 
		d="M435.813,333.161l-13.071,15.101l-24.793,28.648l-24.975-28.608l-13.132-15.05
	c11.812-4.618,24.661-7.144,38.097-7.144h0.01C411.305,326.109,424.072,328.606,435.813,333.161z"/>
	<g>
		<path style="fill:#FBCB99;" 
			d="M422.743,348.262l-24.793,28.648l-24.975-28.608c7.997-1.958,16.359-2.994,24.965-2.994h0.01
		C406.495,345.31,414.797,346.335,422.743,348.262z"/>
		<path style="fill:#FBCB99;" 
			d="M466.086,258.348c0,1.4-0.04,2.79-0.132,4.171c-0.162,2.679-0.477,5.308-0.944,7.896
		c-1.025,5.744-2.771,11.244-5.145,16.39c-10.768,23.422-34.444,39.69-61.916,39.69c-28.08,0-52.193-16.978-62.616-41.233
		c-2.029-4.708-3.542-9.692-4.455-14.878c-0.457-2.557-0.771-5.155-0.933-7.804c-0.101-1.4-0.142-2.811-0.142-4.232
		c0-37.63,30.506-68.146,68.146-68.146C435.58,190.202,466.086,220.718,466.086,258.348z"/>
	</g>
	<path style="fill:#EAA96E;" 
		d="M465.01,270.415c-1.025,5.744-2.771,11.244-5.145,16.39c-56.953,0.304-81.867-25.005-81.867-25.005
	c-12.939,12.604-29.644,19.627-42.663,23.463c-2.029-4.708-3.542-9.692-4.455-14.878c5.714-31.845,33.57-56.019,67.07-56.019
	C431.45,214.366,459.307,238.559,465.01,270.415z"/>
	<path style="fill:#694B4B;" 
		d="M466.086,258.348c0,1.4-0.04,2.79-0.132,4.171c-61.266,2.222-87.956-24.884-87.956-24.884
	c-3.836,3.735-7.997,6.982-12.3,9.793c-12.31,8.068-25.747,12.635-35.752,15.151c-0.101-1.4-0.142-2.811-0.142-4.232
	c0-37.63,30.506-68.146,68.146-68.146c24.295,0,45.627,12.726,57.684,31.876C462.26,232.582,466.086,245.014,466.086,258.348z"/>
	<path style="fill:#563939;" 
		d="M466.086,258.348c0,1.4-0.04,2.79-0.132,4.171c-61.266,2.222-87.956-24.884-87.956-24.884
	c-3.836,3.735-7.997,6.982-12.3,9.793c11.925-19.809,33.632-33.063,58.434-33.063c11.366,0,22.083,2.781,31.501,7.712
	C462.26,232.582,466.086,245.014,466.086,258.348z"/>
	<path style="fill:#D1AB0D;" 
		d="M219.594,430.901v70.967L10.02,504.538v-73.636c0-44.43,27.654-82.404,66.685-97.647
	c11.812-4.618,24.661-7.144,38.097-7.144h0.01c13.355,0,26.122,2.496,37.863,7.053C191.829,348.344,219.594,386.38,219.594,430.901z
	"/>
	<path style="fill:#F8CE19;" 
		d="M219.594,462.259v39.609L10.02,504.538v-42.278c0-44.43,27.654-82.404,66.685-97.647
	c11.812-4.618,24.661-7.144,38.097-7.144h0.01c13.355,0,26.122,2.497,37.863,7.053C191.829,379.702,219.594,417.739,219.594,462.259
	z"/>
	<path style="fill:#EAA96E;" 
		d="M152.675,333.161l-13.071,15.101l-24.793,28.648l-24.975-28.608l-13.132-15.05
	c11.812-4.618,24.661-7.144,38.097-7.144h0.01C128.167,326.109,140.934,328.606,152.675,333.161z"/>
	<g>
		<path style="fill:#FBCB99;" 
			d="M139.605,348.262l-24.793,28.648l-24.975-28.608c7.997-1.958,16.359-2.994,24.965-2.994h0.01
		C123.358,345.31,131.659,346.335,139.605,348.262z"/>
		<path style="fill:#FBCB99;" 
			d="M182.948,258.348c0,1.4-0.04,2.79-0.132,4.171c-0.162,2.679-0.477,5.308-0.944,7.896
		c-1.025,5.744-2.771,11.244-5.146,16.39c-10.768,23.422-34.444,39.69-61.915,39.69c-28.08,0-52.192-16.978-62.616-41.233
		c-2.029-4.708-3.542-9.692-4.455-14.878c-0.457-2.557-0.771-5.155-0.933-7.804c-0.101-1.4-0.142-2.811-0.142-4.232
		c0-37.63,30.506-68.146,68.146-68.146C152.442,190.202,182.948,220.718,182.948,258.348z"/>
	</g>
	<path style="fill:#EAA96E;" 
		d="M181.872,270.415c-1.025,5.744-2.771,11.244-5.146,16.39c-56.952,0.304-81.867-25.005-81.867-25.005
	c-12.939,12.604-29.643,19.627-42.663,23.463c-2.029-4.708-3.542-9.692-4.455-14.878c5.714-31.845,33.57-56.019,67.07-56.019
	C148.312,214.366,176.169,238.559,181.872,270.415z"/>
	<path style="fill:#694B4B;" 
		d="M182.948,258.348c0,1.4-0.04,2.79-0.132,4.171c-61.266,2.222-87.956-24.884-87.956-24.884
	c-3.836,3.735-7.997,6.982-12.3,9.793c-12.31,8.068-25.747,12.635-35.752,15.151c-0.101-1.4-0.142-2.811-0.142-4.232
	c0-37.63,30.506-68.146,68.146-68.146c24.295,0,45.627,12.726,57.684,31.876C179.122,232.582,182.948,245.014,182.948,258.348z"/>
	<path style="fill:#563939;" 
		d="M182.948,258.348c0,1.4-0.04,2.79-0.132,4.171c-61.266,2.222-87.956-24.884-87.956-24.884
	c-3.836,3.735-7.997,6.982-12.3,9.793c11.925-19.809,33.632-33.063,58.434-33.063c11.366,0,22.083,2.781,31.501,7.712
	C179.122,232.582,182.948,245.014,182.948,258.348z"/>
	<path style="fill:#3C6F99;" 
		d="M374.233,378.092v80.384l-237.381,3.023v-83.407c0-50.325,31.324-93.339,75.533-110.604
	c13.38-5.23,27.933-8.093,43.152-8.093h0.012c15.128,0,29.588,2.828,42.888,7.989C342.783,284.581,374.233,327.664,374.233,378.092z
	"/>
	<path style="fill:#6598CB;" 
		d="M374.233,413.611v44.865l-237.381,3.023v-47.888c0-50.325,31.324-93.339,75.533-110.604
	c13.38-5.23,27.933-8.093,43.152-8.093h0.012c15.128,0,29.588,2.828,42.888,7.989C342.783,320.1,374.233,363.183,374.233,413.611z" />
	<path style="fill:#EAA96E;" 
		d="M298.435,267.385l-14.806,17.105l-28.082,32.45l-28.289-32.404l-14.875-17.047
	c13.38-5.23,27.933-8.093,43.152-8.093h0.012C270.675,259.396,285.136,262.224,298.435,267.385z"/>
	<g>
		<path style="fill:#FBCB99;" 
			d="M283.63,284.49l-28.082,32.45l-28.289-32.404c9.057-2.218,18.529-3.391,28.277-3.391h0.012
		C265.227,281.144,274.629,282.305,283.63,284.49z"/>
		<path style="fill:#FBCB99;" 
			d="M332.724,182.645c0,1.586-0.046,3.161-0.15,4.724c-0.184,3.035-0.541,6.012-1.069,8.943
		c-1.161,6.506-3.138,12.736-5.828,18.564c-12.196,26.53-39.013,44.957-70.13,44.957c-31.806,0-59.118-19.231-70.924-46.703
		c-2.299-5.334-4.011-10.977-5.046-16.852c-0.517-2.897-0.873-5.84-1.057-8.84c-0.115-1.586-0.161-3.184-0.161-4.793
		c0-42.623,34.554-77.188,77.188-77.188C298.171,105.456,332.724,140.022,332.724,182.645z"/>
	</g>
	<path style="fill:#EAA96E;" 
		d="M331.506,196.313c-1.161,6.506-3.138,12.736-5.828,18.564c-64.509,0.345-92.729-28.323-92.729-28.323
	c-14.656,14.277-33.576,22.231-48.325,26.577c-2.299-5.334-4.011-10.977-5.046-16.852c6.472-36.071,38.025-63.452,75.97-63.452
	C293.492,132.826,325.046,160.229,331.506,196.313z"/>
	<path style="fill:#694B4B;" 
		d="M332.724,182.645c0,1.586-0.046,3.161-0.15,4.724c-69.395,2.518-99.626-28.186-99.626-28.186
	c-4.345,4.23-9.058,7.908-13.932,11.093c-13.943,9.138-29.162,14.311-40.496,17.162c-0.115-1.586-0.161-3.184-0.161-4.793
	c0-42.623,34.554-77.188,77.188-77.188c27.519,0,51.68,14.415,65.337,36.106C328.391,153.459,332.724,167.54,332.724,182.645z"/>
	<path style="fill:#563939;" 
		d="M332.724,182.645c0,1.586-0.046,3.161-0.15,4.724c-69.395,2.518-99.626-28.186-99.626-28.186
	c-4.345,4.23-9.058,7.908-13.932,11.093c13.507-22.438,38.094-37.451,66.188-37.451c12.874,0,25.013,3.15,35.68,8.736
	C328.391,153.459,332.724,167.54,332.724,182.645z"/>
	<path d="M433.524,324.017c23.382-12.707,39.288-37.492,39.288-65.923c0-24.941-12.253-47.063-31.043-60.7
	c-13.606-26.517-37.29-47.04-65.959-56.498c23.382-12.707,39.289-37.492,39.289-65.922C415.099,33.633,381.466,0,340.125,0
	c-41.34,0-74.974,33.633-74.974,74.975c0,8.583,1.469,16.824,4.136,24.51c-4.329-0.695-8.765-1.069-13.287-1.069
	s-8.958,0.373-13.287,1.069c2.667-7.686,4.136-15.928,4.136-24.51C246.849,33.633,213.215,0,171.874,0S96.901,33.633,96.901,74.975
	c0,28.431,15.907,53.215,39.289,65.922c-28.669,9.458-52.353,29.982-65.958,56.498c-18.791,13.637-31.044,35.758-31.044,60.7
	c0,18.845,7.005,36.074,18.527,49.26v1.114h0.965c5.659,6.227,12.349,11.501,19.798,15.549C32.951,339.036,0,381.97,0,432.46V512
	h228.322v-45.015h55.356V512H512v-79.54C512,381.97,479.049,339.036,433.524,324.017z M497.231,497.231h-32.557v-61.38h-14.769
	v61.38h-104.13v-30.245h37.879v-88.658c0-1.813-0.047-3.615-0.123-5.409l6.924,7.937v47.459h14.769v-47.459l33.86-38.816
	c34.276,15.697,58.147,50.322,58.147,90.421V497.231z M298.447,466.985h32.557v30.245h-32.557V466.985z M47.327,435.851v61.38
	H14.769V432.46c0-40.099,23.871-74.724,58.147-90.42l33.86,38.816v47.459h14.769v-47.459l6.924-7.937
	c-0.075,1.795-0.122,3.597-0.122,5.409v88.658h37.879v30.244H62.096v-61.38H47.327z M55.025,269.336
	c17.454-5.988,29.846-14.236,38.343-21.805c10.946,7.8,36.735,22.194,79.481,23.942c-1.244,5.459-3.218,10.642-5.837,15.428
	c-5.823,5.669-11.108,11.887-15.772,18.572c-10.23,8.024-23.101,12.827-37.08,12.827C84.807,318.299,60.307,297.177,55.025,269.336z
	 M397.839,366.854l-18.402-21.096c-0.925-3.5-1.995-6.941-3.203-10.317c6.959-1.549,14.187-2.372,21.605-2.372
	c9.126,0,17.967,1.243,26.368,3.557L397.839,366.854z M256,305.851l-31.374-35.966c9.964-2.888,20.491-4.441,31.374-4.441
	c10.883,0,21.409,1.553,31.374,4.441L256,305.851z M232.522,168.849c11.941,8.66,41.305,25.504,90.741,27.277
	c-6.56,31.117-34.223,54.55-67.263,54.55c-33.798,0-61.957-24.524-67.669-56.707C208.651,187.118,222.903,177.538,232.522,168.849z
	 M323.868,270.259c-9.298-5.86-19.398-10.559-30.099-13.88c17.356-8.841,31.233-23.558,38.972-41.529v6.125
	c-6.27,10.953-9.875,23.62-9.875,37.12C322.865,262.238,323.218,266.297,323.868,270.259z M218.231,256.379
	c-10.702,3.321-20.801,8.021-30.099,13.88c0.65-3.962,1.002-8.023,1.002-12.165c0-13.5-3.605-26.166-9.875-37.12v-6.125
	C186.999,232.821,200.875,247.538,218.231,256.379z M397.839,318.299c-13.98,0-26.85-4.803-37.08-12.827
	c-4.663-6.685-9.948-12.902-15.772-18.572c-2.959-5.407-5.099-11.318-6.285-17.565c17.454-5.988,29.846-14.236,38.343-21.805
	c10.945,7.8,36.735,22.194,79.481,23.942C450.424,298.249,426.437,318.299,397.839,318.299z M387.358,236.648
	c3.832-4.869,5.55-8.291,5.746-8.695l-13.288-6.446c-0.106,0.221-10.18,20.278-42.023,32.459
	c2.13-31.277,28.239-56.078,60.047-56.078c32.745,0,59.45,26.284,60.17,58.86C420.651,255.37,397.568,243.436,387.358,236.648z
	 M324.731,181.389c-43.914-1.417-70.626-15.727-81.887-23.398c4.691-5.817,6.754-9.948,6.983-10.417l-13.288-6.446
	c-0.124,0.255-11.919,23.733-49.201,37.533c1.713-36.393,31.852-65.475,68.662-65.475
	C293.725,113.184,324.438,143.732,324.731,181.389z M114.161,197.889c32.745,0,59.45,26.284,60.17,58.86
	c-37.357-1.38-60.442-13.313-70.651-20.101c3.832-4.869,5.55-8.291,5.746-8.695l-13.288-6.446
	c-0.106,0.221-10.18,20.278-42.023,32.459C56.244,222.689,82.353,197.889,114.161,197.889z M135.767,335.441
	c-1.208,3.376-2.278,6.816-3.203,10.317l-18.402,21.096l-26.368-30.229c8.401-2.315,17.242-3.557,26.368-3.557
	C121.579,333.068,128.808,333.892,135.767,335.441z M180.995,466.985h32.557v30.245h-32.557V466.985z M196.423,452.216v-70.069
	h-14.769v70.069h-38.538v-73.888c0-45.789,27.405-85.295,66.672-102.985l38.827,44.51v53.806h14.769v-53.806l38.827-44.51
	c39.268,17.69,66.672,57.196,66.672,102.985v73.888h-38.538v-70.069h-14.769v70.069H196.423z M416.147,185.39
	c-5.862-1.477-11.994-2.271-18.308-2.271c-19.353,0-37.015,7.372-50.33,19.453v-4.838l33.861-38.816
	C394.845,165.089,406.707,174.186,416.147,185.39z M366.494,153.504l-26.369,30.229l-0.638-0.732
	c0.005-0.358,0.028-0.712,0.028-1.071c0-11.232-2.243-21.948-6.282-31.739c2.278-0.157,4.576-0.243,6.892-0.243
	C349.252,149.947,358.093,151.19,366.494,153.504z M340.125,14.769c32.746,0,59.451,26.284,60.171,58.86
	c-37.358-1.38-60.442-13.314-70.652-20.102c3.832-4.869,5.551-8.291,5.747-8.696l-13.268-6.489
	c-0.454,0.905-10.612,20.5-42.045,32.506C282.206,39.572,308.316,14.769,340.125,14.769z M280.989,86.216
	c17.454-5.988,29.846-14.236,38.342-21.805c10.945,7.8,36.735,22.195,79.482,23.942c-6.102,26.777-30.09,46.826-58.688,46.826
	c-5.771,0-11.347-0.833-16.634-2.355c-9.021-12.364-21.345-22.166-35.671-28.092C284.585,99.066,282.245,92.832,280.989,86.216z
	 M171.874,14.769c32.746,0,59.45,26.284,60.17,58.86c-37.358-1.38-60.442-13.314-70.652-20.102c3.832-4.869,5.55-8.291,5.746-8.696
	l-13.268-6.489c-0.454,0.905-10.612,20.5-42.045,32.506C113.955,39.572,140.065,14.769,171.874,14.769z M112.738,86.216
	c17.454-5.988,29.846-14.236,38.342-21.805c10.945,7.8,36.735,22.195,79.482,23.942c-1.327,5.825-3.499,11.327-6.383,16.378
	c-14.326,5.927-26.649,15.728-35.67,28.092c-5.287,1.523-10.863,2.355-16.634,2.355C142.52,135.178,118.021,114.056,112.738,86.216z
	 M178.768,150.19c-4.039,9.792-6.282,20.507-6.282,31.739c0,0.359,0.023,0.714,0.028,1.071l-0.638,0.732l-26.369-30.229
	c8.402-2.315,17.242-3.557,26.369-3.557C174.192,149.947,176.489,150.034,178.768,150.19z M130.629,158.919l33.861,38.816v4.838
	c-13.315-12.081-30.977-19.453-50.33-19.453c-6.314,0-12.446,0.794-18.308,2.271C105.293,174.186,117.155,165.089,130.629,158.919z" />
	<rect x="390.459" 
		y="442.663" 
		width="14.769" 
		height="16.937"/>
	<rect x="248.615" 
		y="389.819" 
		width="14.769" 
		height="19.078"/>
	<rect x="473.915" 
		y="158.415" 
		width="14.769" 
		height="16.416"/>
	<rect x="439.513" 
		y="102.242" 
		width="14.769" 
		height="16.416"/>
	<rect x="497.231" 
		y="41.61" 
		width="14.769" 
		height="16.416"/>
	<rect x="439.513" 
		y="10.063" 
		width="14.769" 
		height="16.416"/>
	<rect x="23.316" 
		y="158.415" 
		width="14.769" 
		height="16.416"/>
	<rect x="57.718" 
		y="102.242" 
		width="14.769" 
		height="16.416"/>
	<rect y="41.61" 
		width="14.769" 
		height="16.416"/>
	<rect x="57.718" 
		y="10.063" 
		width="14.769" 
		height="16.416"/>
	<g>
	</g>
	<g>
	</g>
	<g>
	</g>
	<g>
	</g>
	<g>
	</g>
	<g>
	</g>
	<g>
	</g>
	<g>
	</g>
	<g>
	</g>
	<g>
	</g>
	<g>
	</g>
	<g>
	</g>
	<g>
	</g>
	<g>
	</g>
	<g>
	</g>
</svg>
