<?xml version="1.0" encoding="iso-8859-1"?>
<!-- Generator: Adobe Illustrator 19.0.0, SVG Export Plug-In . SVG Version: 6.00 Build 0)  -->
<svg version="1.1" id="Layer_1" xmlns="http://www.w3.org/2000/svg" xmlns:xlink="http://www.w3.org/1999/xlink" x="0px" y="0px"
	 viewBox="0 0 512 512" style="enable-background:new 0 0 512 512;" xml:space="preserve">
<path style="fill:#C62E1E;" d="M298.85,50.228c0,23.67-19.19,42.85-42.85,42.85c-6.183,0-12.052-1.31-17.359-3.663
	c-15.015-6.656-25.492-21.701-25.492-39.188c0-23.66,19.19-42.841,42.85-42.841c17.477,0,32.512,10.466,39.178,25.472
	C297.541,38.167,298.85,44.044,298.85,50.228z"/>
<path style="fill:#EF4C35;" d="M298.85,50.228c0,23.67-19.19,42.85-42.85,42.85c-6.183,0-12.052-1.31-17.359-3.663
	c-2.363-5.307-3.673-11.185-3.673-17.369c0-23.66,19.18-42.85,42.85-42.85c6.183,0,12.052,1.31,17.359,3.663
	C297.541,38.167,298.85,44.044,298.85,50.228z"/>
<path style="fill:#579E2E;" d="M298.85,461.443c0,23.67-19.19,42.85-42.85,42.85c-6.183,0-12.052-1.31-17.359-3.663
	c-15.015-6.656-25.492-21.701-25.492-39.188c0-23.66,19.19-42.841,42.85-42.841c17.477,0,32.512,10.466,39.178,25.472
	C297.541,449.381,298.85,455.26,298.85,461.443z"/>
<path style="fill:#75BF4D;" d="M298.85,461.443c0,23.67-19.19,42.85-42.85,42.85c-6.183,0-12.052-1.31-17.359-3.663
	c-2.363-5.307-3.673-11.185-3.673-17.369c0-23.66,19.18-42.85,42.85-42.85c6.183,0,12.052,1.31,17.359,3.663
	C297.541,449.381,298.85,455.26,298.85,461.443z"/>
<path style="fill:#579E2E;" d="M444.199,110.646c0,23.67-19.19,42.85-42.85,42.85c-6.183,0-12.052-1.31-17.359-3.663
	c-15.015-6.656-25.492-21.701-25.492-39.188c0-23.66,19.19-42.841,42.85-42.841c17.477,0,32.512,10.466,39.178,25.472
	C442.89,98.585,444.199,104.463,444.199,110.646z"/>
<path style="fill:#75BF4D;" d="M444.199,110.646c0,23.67-19.19,42.85-42.85,42.85c-6.183,0-12.052-1.31-17.359-3.663
	c-2.363-5.307-3.673-11.185-3.673-17.369c0-23.66,19.18-42.85,42.85-42.85c6.183,0,12.052,1.31,17.359,3.663
	C442.89,98.585,444.199,104.463,444.199,110.646z"/>
<path style="fill:#C62E1E;" d="M504.406,255.996c0,23.67-19.19,42.85-42.85,42.85c-6.183,0-12.052-1.31-17.359-3.663
	c-15.015-6.656-25.492-21.701-25.492-39.188c0-23.66,19.19-42.841,42.85-42.841c17.477,0,32.512,10.466,39.178,25.472
	C503.096,243.935,504.406,249.812,504.406,255.996z"/>
<path style="fill:#EF4C35;" d="M504.406,255.996c0,23.67-19.19,42.85-42.85,42.85c-6.183,0-12.052-1.31-17.359-3.663
	c-2.363-5.307-3.673-11.185-3.673-17.369c0-23.66,19.18-42.85,42.85-42.85c6.183,0,12.052,1.31,17.359,3.663
	C503.096,243.935,504.406,249.812,504.406,255.996z"/>
<path style="fill:#D1AB0D;" d="M444.199,401.345c0,23.67-19.19,42.85-42.85,42.85c-6.183,0-12.052-1.31-17.359-3.663
	c-15.015-6.656-25.492-21.701-25.492-39.188c0-23.66,19.19-42.841,42.85-42.841c17.477,0,32.512,10.466,39.178,25.472
	C442.89,389.283,444.199,395.162,444.199,401.345z"/>
<path style="fill:#F8CE19;" d="M444.199,401.345c0,23.67-19.19,42.85-42.85,42.85c-6.183,0-12.052-1.31-17.359-3.663
	c-2.363-5.307-3.673-11.185-3.673-17.369c0-23.66,19.18-42.85,42.85-42.85c6.183,0,12.052,1.31,17.359,3.663
	C442.89,389.283,444.199,395.162,444.199,401.345z"/>
<path style="fill:#3C6F99;" d="M151.333,110.646c0,23.67-19.19,42.85-42.85,42.85c-6.183,0-12.052-1.31-17.359-3.663
	c-15.015-6.656-25.492-21.701-25.492-39.188c0-23.66,19.19-42.841,42.85-42.841c17.477,0,32.512,10.466,39.178,25.472
	C150.024,98.585,151.333,104.463,151.333,110.646z"/>
<path style="fill:#6598CB;" d="M151.333,110.646c0,23.67-19.19,42.85-42.85,42.85c-6.183,0-12.052-1.31-17.359-3.663
	c-2.363-5.307-3.673-11.185-3.673-17.369c0-23.66,19.18-42.85,42.85-42.85c6.183,0,12.052,1.31,17.359,3.663
	C150.024,98.585,151.333,104.463,151.333,110.646z"/>
<path style="fill:#D1AB0D;" d="M93.295,255.996c0,23.67-19.19,42.85-42.85,42.85c-6.183,0-12.052-1.31-17.359-3.663
	c-15.015-6.656-25.492-21.701-25.492-39.188c0-23.66,19.19-42.841,42.85-42.841c17.477,0,32.512,10.466,39.178,25.472
	C91.986,243.935,93.295,249.812,93.295,255.996z"/>
<path style="fill:#F8CE19;" d="M93.295,255.996c0,23.67-19.19,42.85-42.85,42.85c-6.183,0-12.052-1.31-17.359-3.663
	c-2.363-5.307-3.673-11.185-3.673-17.369c0-23.66,19.18-42.85,42.85-42.85c6.183,0,12.052,1.31,17.359,3.663
	C91.986,243.935,93.295,249.812,93.295,255.996z"/>
<path style="fill:#3C6F99;" d="M151.333,401.345c0,23.67-19.19,42.85-42.85,42.85c-6.183,0-12.052-1.31-17.359-3.663
	c-15.015-6.656-25.492-21.701-25.492-39.188c0-23.66,19.19-42.841,42.85-42.841c17.477,0,32.512,10.466,39.178,25.472
	C150.024,389.283,151.333,395.162,151.333,401.345z"/>
<path style="fill:#6598CB;" d="M151.333,401.345c0,23.67-19.19,42.85-42.85,42.85c-6.183,0-12.052-1.31-17.359-3.663
	c-2.363-5.307-3.673-11.185-3.673-17.369c0-23.66,19.18-42.85,42.85-42.85c6.183,0,12.052,1.31,17.359,3.663
	C150.024,389.283,151.333,395.162,151.333,401.345z"/>
<path style="fill:#213847;" d="M356.263,255.845c0,55.375-44.889,100.263-100.263,100.263c-16.463,0-32.01-3.968-45.716-11.008
	c-32.384-16.62-54.548-50.343-54.548-89.255c0-55.375,44.889-100.273,100.263-100.273c38.912,0,72.635,22.164,89.255,54.558
	C352.295,223.836,356.263,239.383,356.263,255.845z"/>
<path style="fill:#324A5E;" d="M356.263,255.845c0,55.375-44.889,100.263-100.263,100.263c-16.463,0-32.01-3.968-45.716-11.008
	c-7.04-13.706-11.008-29.253-11.008-45.716c0-55.375,44.889-100.263,100.263-100.263c16.463,0,32.01,3.968,45.716,11.008
	C352.295,223.836,356.263,239.383,356.263,255.845z"/>
<path d="M256,411.109c-27.815,0-50.445,22.629-50.445,50.445C205.555,489.37,228.185,512,256,512s50.445-22.629,50.445-50.445
	C306.445,433.74,283.815,411.109,256,411.109z M256,497.231c-19.672,0-35.676-16.004-35.676-35.676S236.328,425.88,256,425.88
	s35.676,16.004,35.676,35.676S275.672,497.231,256,497.231z"/>
<path d="M461.555,205.555c-27.815,0-50.445,22.629-50.445,50.445s22.629,50.445,50.445,50.445C489.371,306.445,512,283.815,512,256
	S489.371,205.555,461.555,205.555z M461.555,291.676c-19.672,0-35.676-16.004-35.676-35.676s16.004-35.676,35.676-35.676
	s35.676,16.004,35.676,35.676S481.227,291.676,461.555,291.676z"/>
<path d="M100.891,256c0-27.815-22.629-50.445-50.445-50.445S0,228.185,0,256s22.629,50.445,50.445,50.445
	S100.891,283.815,100.891,256z M14.769,256c0-19.672,16.004-35.676,35.676-35.676S86.121,236.328,86.121,256
	s-16.004,35.676-35.676,35.676S14.769,275.672,14.769,256z"/>
<path d="M401.349,161.072c12.918,0,25.836-4.916,35.671-14.75c19.669-19.67,19.669-51.672,0-71.341
	c-19.669-19.668-51.673-19.668-71.34,0c-19.669,19.67-19.669,51.672,0,71.341C375.513,156.156,388.431,161.072,401.349,161.072z
	 M401.349,74.992c9.136,0,18.272,3.477,25.227,10.433c13.911,13.91,13.911,36.543,0,50.453
	c-13.91,13.911-36.544,13.908-50.454,0.001c-13.91-13.911-13.91-36.544,0-50.454C383.077,78.469,392.213,74.992,401.349,74.992z"/>
<path d="M110.651,161.072c12.918,0,25.836-4.916,35.67-14.75c19.669-19.67,19.669-51.672,0-71.341
	c-19.669-19.668-51.672-19.668-71.34,0c-19.669,19.67-19.669,51.672,0,71.341C84.815,156.156,97.733,161.072,110.651,161.072z
	 M135.878,85.425c13.91,13.91,13.91,36.543,0,50.453s-36.544,13.91-50.454,0s-13.91-36.543,0-50.453
	C99.333,71.514,121.967,71.514,135.878,85.425z"/>
<path d="M320.524,242.106l14.439-3.105c-6.314-29.355-28.208-52.64-57.14-60.768l-3.995,14.219
	C297.472,199.094,315.364,218.12,320.524,242.106z"/>
<path d="M321.984,254.792c0.007,0.401,0.011,0.803,0.011,1.208c0,3.841-0.334,7.693-0.993,11.447l14.547,2.554
	c0.806-4.596,1.215-9.307,1.215-14.001c0-0.494-0.005-0.988-0.014-1.479L321.984,254.792z"/>
<path d="M217.96,327.233l6.977-13.018c-13.237-7.094-23.771-18.591-29.66-32.37l-13.581,5.803
	C188.899,304.502,201.778,318.56,217.96,327.233z"/>
<path d="M382.048,354.75c-3.77,1.556-7.388,3.586-10.761,6.093l-35.235-35.235c8.592-9.868,15.389-21.334,19.888-33.886
	c4.004-11.168,6.192-23.194,6.192-35.723c0-42.28-24.855-78.861-60.717-95.911c-11.671-5.548-24.506-9.026-38.031-9.96v-49.784
	c4.158-0.612,8.152-1.735,11.917-3.3c18.265-7.593,31.143-25.618,31.143-46.599C306.445,22.629,283.815,0,256,0
	s-50.445,22.629-50.445,50.445c0,25.307,18.734,46.315,43.06,49.899v49.784c-55.089,3.806-98.748,49.832-98.748,105.872
	c0,26.609,9.845,50.961,26.081,69.608l-35.235,35.235c-19.736-14.666-47.839-13.058-65.733,4.835
	c-19.669,19.67-19.669,51.672,0,71.341c9.834,9.833,22.752,14.751,35.671,14.751s25.836-4.917,35.67-14.751
	c17.894-17.895,19.502-45.996,4.836-65.733l35.235-35.235c18.648,16.236,42.999,26.081,69.607,26.081
	c26.609,0,50.96-9.845,69.608-26.081l35.234,35.235c-14.667,19.737-13.059,47.839,4.835,65.734
	c9.834,9.833,22.752,14.751,35.671,14.751s25.836-4.917,35.671-14.751c19.669-19.67,19.669-51.672,0-71.341
	C422.183,350.844,400.332,347.206,382.048,354.75z M376.122,426.576c-13.91-13.91-13.91-36.543,0-50.453
	c13.911-13.912,36.543-13.912,50.454,0c13.911,13.91,13.911,36.543,0,50.453C412.665,440.487,390.033,440.487,376.122,426.576z
	 M164.637,256c0-50.378,40.986-91.363,91.363-91.363s91.363,40.986,91.363,91.363S306.378,347.363,256,347.363
	S164.637,306.378,164.637,256z M256,14.769c19.672,0,35.676,16.004,35.676,35.676S275.672,86.12,256,86.12
	s-35.676-16.004-35.676-35.676S236.328,14.769,256,14.769z M85.424,426.576c-13.91-13.91-13.91-36.543,0-50.453
	c6.955-6.956,16.09-10.433,25.227-10.433c9.134,0,18.272,3.478,25.227,10.432c13.91,13.911,13.91,36.544,0,50.454
	C121.967,440.487,99.335,440.487,85.424,426.576z"/>
<polygon points="263.385,58.564 263.385,50.445 263.385,42.327 248.615,42.327 248.615,50.445 248.615,58.564 "/>
<rect x="248.615" y="453.435" width="14.769" height="16.237"/>
<rect x="103.266" y="102.538" width="14.769" height="16.237"/>
<rect x="103.266" y="393.226" width="14.769" height="16.237"/>
<rect x="43.06" y="247.877" width="14.769" height="16.237"/>
<rect x="393.964" y="102.538" width="14.769" height="16.237"/>
<rect x="393.964" y="393.226" width="14.769" height="16.237"/>
<rect x="454.174" y="247.877" width="14.769" height="16.237"/>
<g>
</g>
<g>
</g>
<g>
</g>
<g>
</g>
<g>
</g>
<g>
</g>
<g>
</g>
<g>
</g>
<g>
</g>
<g>
</g>
<g>
</g>
<g>
</g>
<g>
</g>
<g>
</g>
<g>
</g>
</svg>
