<?xml version="1.0" encoding="iso-8859-1"?>
<!-- Generator: Adobe Illustrator 19.0.0, SVG Export Plug-In . SVG Version: 6.00 Build 0)  -->
<svg version="1.1" id="Layer_1" xmlns="http://www.w3.org/2000/svg" xmlns:xlink="http://www.w3.org/1999/xlink" x="0px" y="0px"
	 viewBox="0 0 512 512" style="enable-background:new 0 0 512 512;" xml:space="preserve">
<g>
	<g>
		<path d="M256,411.109c-27.815,0-50.445,22.629-50.445,50.445S228.185,512,256,512s50.445-22.629,50.445-50.445
			C306.445,433.74,283.815,411.109,256,411.109z M256,497.231c-19.672,0-35.676-16.004-35.676-35.676S236.328,425.88,256,425.88
			s35.676,16.004,35.676,35.676S275.672,497.231,256,497.231z"/>
	</g>
</g>
<g>
	<g>
		<path d="M461.555,205.555c-27.815,0-50.445,22.629-50.445,50.445s22.629,50.445,50.445,50.445
			C489.371,306.445,512,283.815,512,256S489.371,205.555,461.555,205.555z M461.555,291.676c-19.672,0-35.676-16.004-35.676-35.676
			s16.004-35.676,35.676-35.676s35.676,16.004,35.676,35.676S481.227,291.676,461.555,291.676z"/>
	</g>
</g>
<g>
	<g>
		<path d="M50.446,205.555C22.63,205.555,0,228.185,0,256s22.629,50.445,50.445,50.445c27.815,0,50.446-22.629,50.446-50.445
			S78.261,205.555,50.446,205.555z M50.445,291.676c-19.672,0-35.676-16.004-35.676-35.676s16.004-35.676,35.676-35.676
			S86.121,236.328,86.121,256S70.116,291.676,50.445,291.676z"/>
	</g>
</g>
<g>
	<g>
		<path d="M437.02,74.981c-19.669-19.668-51.673-19.668-71.34,0c-19.669,19.67-19.669,51.672,0,71.341
			c9.833,9.833,22.752,14.75,35.67,14.75s25.836-4.916,35.671-14.75C456.688,126.653,456.688,94.651,437.02,74.981z
			 M426.576,135.878c-13.91,13.911-36.544,13.908-50.454,0.001c-13.91-13.911-13.91-36.544,0-50.454
			c6.955-6.955,16.091-10.433,25.227-10.433s18.271,3.477,25.227,10.433C440.486,99.335,440.486,121.968,426.576,135.878z"/>
	</g>
</g>
<g>
	<g>
		<path d="M146.321,74.981c-19.669-19.668-51.672-19.668-71.34,0c-19.669,19.67-19.669,51.672,0,71.341
			c9.834,9.833,22.753,14.75,35.671,14.75s25.836-4.916,35.67-14.75C165.989,126.653,165.989,94.651,146.321,74.981z
			 M135.878,135.878c-13.91,13.91-36.544,13.91-50.454,0c-13.911-13.91-13.911-36.543,0-50.453c13.91-13.912,36.543-13.912,50.454,0
			C149.788,99.335,149.788,121.968,135.878,135.878z"/>
	</g>
</g>
<g>
	<g>
		<path d="M277.823,178.233l-3.995,14.219c23.644,6.642,41.536,25.668,46.694,49.654l14.439-3.105
			C328.649,209.645,306.754,186.361,277.823,178.233z"/>
	</g>
</g>
<g>
	<g>
		<path d="M336.75,254.521l-14.766,0.271c0.007,0.401,0.011,0.803,0.011,1.208c0,3.841-0.334,7.693-0.993,11.447l14.547,2.554
			c0.806-4.596,1.215-9.307,1.215-14.001C336.764,255.506,336.759,255.012,336.75,254.521z"/>
	</g>
</g>
<g>
	<g>
		<path d="M195.278,281.845l-13.581,5.803c7.202,16.853,20.081,30.911,36.263,39.583l6.977-13.018
			C211.7,307.121,201.167,295.625,195.278,281.845z"/>
	</g>
</g>
<g>
	<g>
		<path d="M437.02,365.679c-14.836-14.835-36.688-18.473-54.972-10.929c-3.77,1.556-7.388,3.586-10.761,6.093l-35.235-35.235
			c8.592-9.868,15.389-21.334,19.888-33.886c4.004-11.168,6.192-23.194,6.192-35.723c0-42.28-24.855-78.861-60.717-95.911
			c-11.671-5.548-24.506-9.026-38.031-9.96v-49.784c4.158-0.612,8.152-1.735,11.917-3.3c18.265-7.593,31.143-25.618,31.143-46.599
			C306.445,22.629,283.815,0,256,0s-50.445,22.629-50.445,50.445c0,25.307,18.734,46.315,43.06,49.899v49.784
			c-55.089,3.806-98.748,49.832-98.748,105.872c0,26.609,9.845,50.961,26.081,69.608l-35.235,35.235
			c-19.736-14.666-47.839-13.058-65.733,4.835c-19.669,19.67-19.669,51.672,0,71.341c9.834,9.833,22.753,14.75,35.671,14.75
			s25.836-4.917,35.67-14.75c17.894-17.895,19.502-45.996,4.836-65.733l35.235-35.235c18.648,16.236,42.999,26.081,69.607,26.081
			c26.609,0,50.96-9.845,69.608-26.082l35.234,35.235c-14.667,19.737-13.059,47.839,4.835,65.734
			c9.834,9.833,22.753,14.75,35.671,14.75s25.836-4.917,35.671-14.75C456.688,417.351,456.688,385.349,437.02,365.679z
			 M135.878,426.576c-13.911,13.912-36.543,13.912-50.454,0c-13.91-13.91-13.91-36.543,0-50.453
			c6.955-6.956,16.09-10.433,25.227-10.433c9.134,0,18.273,3.478,25.227,10.432C149.788,390.033,149.788,412.666,135.878,426.576z
			 M220.324,50.445c0-19.672,16.004-35.676,35.676-35.676s35.676,16.004,35.676,35.676S275.672,86.12,256,86.12
			S220.324,70.117,220.324,50.445z M256,347.363c-50.378,0-91.363-40.986-91.363-91.363c0-50.378,40.986-91.363,91.363-91.363
			s91.363,40.986,91.363,91.363C347.363,306.378,306.378,347.363,256,347.363z M426.576,426.576
			c-13.911,13.912-36.543,13.912-50.454,0c-13.91-13.91-13.91-36.543,0-50.453c13.911-13.912,36.543-13.912,50.454,0
			C440.486,390.033,440.486,412.666,426.576,426.576z"/>
	</g>
</g>
<g>
	<g>
		<rect x="248.615" y="42.327" width="14.769" height="16.237"/>
	</g>
</g>
<g>
	<g>
		<rect x="248.615" y="453.435" width="14.769" height="16.237"/>
	</g>
</g>
<g>
	<g>
		<rect x="103.266" y="102.538" width="14.769" height="16.237"/>
	</g>
</g>
<g>
	<g>
		<rect x="103.266" y="393.226" width="14.769" height="16.237"/>
	</g>
</g>
<g>
	<g>
		<rect x="43.06" y="247.877" width="14.769" height="16.237"/>
	</g>
</g>
<g>
	<g>
		<rect x="393.964" y="102.538" width="14.769" height="16.237"/>
	</g>
</g>
<g>
	<g>
		<rect x="393.964" y="393.226" width="14.769" height="16.237"/>
	</g>
</g>
<g>
	<g>
		<rect x="454.174" y="247.877" width="14.769" height="16.237"/>
	</g>
</g>
<g>
</g>
<g>
</g>
<g>
</g>
<g>
</g>
<g>
</g>
<g>
</g>
<g>
</g>
<g>
</g>
<g>
</g>
<g>
</g>
<g>
</g>
<g>
</g>
<g>
</g>
<g>
</g>
<g>
</g>
</svg>
