<?xml version="1.0" encoding="iso-8859-1"?>
<!-- Generator: Adobe Illustrator 19.0.0, SVG Export Plug-In . SVG Version: 6.00 Build 0)  -->
<svg version="1.1" id="Capa_1" xmlns="http://www.w3.org/2000/svg" xmlns:xlink="http://www.w3.org/1999/xlink" x="0px" y="0px"
	 viewBox="0 0 512.001 512.001" style="enable-background:new 0 0 512.001 512.001;" xml:space="preserve">
<g>
	<g>
		<path d="M505.751,381.137c-4.256-8.116-11.787-14.863-17.839-21.63c-13.476-15.069-26.99-30.106-40.419-45.216
			c-13.432-15.113-26.846-30.243-40.296-45.34c-5.745-6.448-11.503-14.309-19.113-18.681c-6.994-4.018-15.055-4.24-22.866-3.279
			c-7.083,0.871-14.369,2.668-21.532,1.845c0.302-10.114,0.704-20.225,1.233-30.333c0.161-3.065,0.331-6.13,0.512-9.195
			c0.114-1.934-0.387-5.955,0.258-8.196c0.248-0.042,0.735-0.141,1.55-0.135c1.517,0.012,3.148-0.414,4.647-0.616
			c3.054-0.411,6.107-0.823,9.161-1.234c13.077-1.762,26.145-3.707,39.249-5.256c3.312-0.391,6.647-3.264,5.352-7.025
			c-3.638-10.564-9.311-20.016-15.669-29.147c-6.743-9.685-13.318-19.488-20.248-29.041c-14.309-19.726-28.734-39.378-43.686-58.624
			c-14.793-19.04-29.993-37.789-46.126-55.715c-5.909-6.565-15.015-20.46-24.363-11.27c-8.439,8.297-16.248,17.385-23.937,26.372
			c-13.434,15.7-25.885,32.119-37.723,49.013c-5.053,6.169-10.076,12.363-15.022,18.618c-12.425,15.713-24.682,31.56-36.769,47.535
			c-12.301,16.258-25.308,32.39-36.216,49.619c-2.611,4.125,0.84,9.148,5.346,9.317c11.287,0.422,22.511,1.602,33.748,2.721
			c5.454,0.543,10.908,1.085,16.362,1.628c2.726,0.271,5.452,0.577,8.181,0.817c0.38,0.033,0.63,0.017,0.789-0.025
			c0.004,0.012,0.005,0.021,0.01,0.034c0.454,1.249-0.002,3.356-0.008,4.747c-0.061,12.588-0.122,25.177-0.184,37.766
			c-14.375-4.428-28.955-6.63-42.172,3.152c-14.653,10.845-27.659,24.843-40.554,37.679c-26.469,26.348-51.718,53.956-75.208,82.998
			c-5.927,7.328-9.943,13.95-8.991,23.75c0.951,9.791,2.73,19.55,3.952,29.316c2.516,20.117,5.004,40.236,7.492,60.356
			c0.983,7.952,1.859,16.975,11.043,19.51c4,1.104,8.491,0.768,12.589,0.84c5.147,0.091,10.295,0.181,15.442,0.269
			c20.252,0.346,40.5,0.744,60.75,1.174c80.989,1.719,162.014,2.549,243.008,0.693c20.583-0.472,41.162-1.116,61.733-1.963
			c19.164-0.789,38.777-0.607,57.837-2.797c7.939-0.912,15.096-4.04,18.549-11.68c3.685-8.153,3.665-18.599,4.778-27.371
			c2.502-19.708,5.027-39.415,7.484-59.129C509.013,398.814,510.233,389.687,505.751,381.137z M371.496,311.993
			c2.091-8.812,3.651-17.737,4.8-26.719c1.092-8.532,2.048-17.758,0.991-26.403c1.339,0.358,2.638,0.856,3.873,1.545
			c7.37,4.111,12.809,12.942,18.311,19.164c6.131,6.932,12.262,13.864,18.393,20.796c12.263,13.865,24.522,27.733,36.743,41.636
			c11.983,13.633,24.77,26.873,36.047,41.094c0.293,0.37,0.556,0.741,0.815,1.112c-17.2,0.368-34.4,0.693-51.601,1.036
			c-7.162,0.143-14.325,0.287-21.487,0.429c-0.123-0.369-0.277-0.736-0.485-1.095c-3.282-5.673-8.704-10.267-13.135-15.043
			c-4.603-4.961-9.311-9.821-13.898-14.796c-4.366-4.736-8.616-9.57-12.914-14.366c-3.37-3.76-7.139-8.323-11.443-11.45
			C369.511,324.079,370.411,316.561,371.496,311.993z M360.368,258.918c1.876-0.203,3.833-0.443,5.813-0.613
			c-0.968,6.624-0.966,13.458-1.529,20.118c-0.646,7.647-1.363,15.246-2.616,22.823c-0.589,3.563-1.27,7.109-2.003,10.644
			c-0.62,2.987-0.775,8.021-2.385,10.56c-1.382,2.179,0.343,0.74-1.971,1.775c-1.441,0.645-4.369,0.675-5.934,0.917
			c-2.162,0.334-4.321,0.668-6.482,0.985c-0.222-10.983-0.32-21.969-0.285-32.955c0.036-11.279,0.177-22.556,0.435-33.83
			C349.046,259.988,354.646,259.537,360.368,258.918z M152.143,195.578c-9.824-0.913-19.675-1.693-29.473-2.877
			c10.031-13.141,19.417-26.84,29.303-40.068c12.138-16.241,24.456-32.348,36.961-48.308c12.447-15.884,24.821-31.82,37.465-47.55
			c10.564-13.143,21.399-26.255,31.254-39.965c0.178-0.179,0.353-0.36,0.531-0.539c0.713-0.716,3.042-2.321,3.32-3.304
			c0.018-0.017,0.035-0.035,0.053-0.052c1.008,1.811,3.574,4.006,4.757,5.345c1.944,2.199,3.88,4.405,5.802,6.623
			c29.348,33.85,56.529,69.431,83.026,105.535c7.295,9.938,14.816,19.692,22.217,29.551c5.614,7.48,11.109,15.289,15.086,23.796
			c-8.599,1.045-17.216,1.965-25.817,2.969c-5.102,0.595-10.204,1.187-15.305,1.786c-4.635,0.545-10.494,0.323-14.124,3.764
			c-2.738,2.595-3.107,6.343-3.385,9.875c-0.455,5.782-0.791,11.576-1.132,17.365c-0.662,11.24-1.19,22.488-1.582,33.741
			c-0.773,22.166-0.982,44.338-0.614,66.514c0.187,11.256,0.508,22.51,0.964,33.759c0.207,5.113,0.451,10.224,0.706,15.335
			c0.183,3.66,1.008,8.845-0.884,12.22c-1.826,3.257-7.1,2.309-10.309,2.415c-5.773,0.19-11.548,0.354-17.323,0.491
			c-11.21,0.265-22.422,0.43-33.635,0.494c-22.085,0.126-44.172-0.137-66.248-0.796c-4.843-0.145-10.09,0.161-14.847-0.827
			c-4.612-0.958-5.849-4.264-6.31-8.601c-1.111-10.433-0.214-21.374-0.233-31.86c-0.039-22.177-0.072-44.354-0.163-66.531
			c-0.05-12.283-0.1-24.565-0.15-36.848l-0.079-19.447c-0.02-4.867,0.896-10.903-0.829-15.577c-1.744-4.724-5.97-6.212-10.593-6.723
			C164.43,196.609,158.275,196.148,152.143,195.578z M187.164,395.113c10.371,1.557,21.401,0.978,31.876,1.235
			c11.21,0.275,22.422,0.448,33.635,0.522c22.425,0.147,44.852-0.112,67.268-0.771c8.534-0.251,17.605-0.115,22.213-8.642
			c4.323-8.001,2.615-18.115,2.227-26.761c-0.414-9.216-0.714-18.437-0.945-27.66c2.812,0.111,5.624,0.249,8.437,0.387
			c2.613,0.128,5.648,0.607,8.371,0.095c1.991,4.804,5.539,9.342,8.534,13.309c4.089,5.417,8.417,10.673,12.721,15.919
			c4.303,5.243,8.623,10.49,13.16,15.533c2.206,2.453,4.408,5.097,6.747,7.594c-4.951,0.065-9.897,0.31-14.713,1.312
			c-13.878,2.887-22.017,13.216-30.527,23.59c-4.34,5.29-8.806,10.517-14.905,13.821c-6.557,3.552-14.236,4.875-21.595,5.43
			c-17.68,1.332-35.592,0.955-53.314,1.285c-18.612,0.346-37.225,0.682-55.837,1.002c-16.779,0.288-32.65-0.139-47.781-8.187
			c-12.713-6.762-23.911-15.977-36.453-23.022c-4.329-2.432-8.733-4.357-13.209-5.908c7.695-8.13,15.211-16.415,22.547-24.885
			c4.809-5.552,9.437-11.269,14.091-16.951c4.141-5.056,9.421-10.151,12.461-15.981c0.293-0.561,0.534-1.136,0.749-1.717
			c2.243,0.473,4.648,0.529,6.895,0.333c-0.01,4.187-0.02,8.373-0.031,12.56C169.742,364.641,165.186,391.813,187.164,395.113z
			 M170.089,260.737c-0.033,6.754-0.066,13.508-0.099,20.261c-0.072,14.81-0.113,29.62-0.149,44.43
			c-1.939,0.558-3.86,1.179-5.802,1.735c-0.083-2.629-0.41-5.273-0.631-7.792c-0.617-7.005-1.445-13.989-2.425-20.952
			c-1.847-13.122-4.467-26.196-8.24-38.911C158.622,259.336,164.315,259.826,170.089,260.737z M23.27,382.101
			c5.349-6.673,10.784-13.276,16.305-19.806c11.04-13.059,22.422-25.829,34.127-38.296c11.918-12.693,24.321-24.939,36.981-36.889
			c6.216-5.868,12.497-11.673,18.879-17.36c3.964-3.532,7.941-6.496,12.527-8.303c2.652,12.003,5.259,23.993,7.354,36.113
			c1.139,6.593,2.105,13.214,2.87,19.861c0.713,6.194,2.763,12.993-1.123,18.32c-14.252,19.541-29.608,38.325-44.31,57.553
			c-10.477-2.816-21.344-3.853-32.61-4.437c-18.296-0.949-36.609-1.52-54.924-1.905C20.594,385.251,22.024,383.656,23.27,382.101z
			 M494.08,406.986c-1.223,9.173-2.422,18.349-3.625,27.525c-1.203,9.175-2.407,18.35-3.61,27.526
			c-1.075,8.199-0.972,17.754-3.53,25.637c-2.121,6.535-12.346,5.265-17.823,5.609c-9.251,0.582-18.505,1.125-27.761,1.613
			c-18.844,0.994-37.715,1.621-56.576,2.178c-74.452,2.202-148.955,1.988-223.423,0.79c-37.423-0.602-74.832-1.473-112.239-2.713
			c-4.454-0.148-8.936-0.158-13.383-0.447c-0.457-0.029-2.907-0.365-2.503-0.017c-0.917-0.789-0.962-4.901-1.121-6.018
			c-1.309-9.184-2.59-18.372-3.885-27.557c-2.655-18.83-5.492-37.649-7.706-56.536c-0.328-2.796-0.88-5.861-0.798-8.8
			c16.999,1.48,34.008,2.786,51.039,3.857c16.829,1.057,33.826,1.25,49.196,9.067c12.868,6.544,23.943,15.922,36.231,23.407
			c13.832,8.426,28.421,12.512,44.613,12.895c18.291,0.433,36.672-0.385,54.964-0.674c18.554-0.294,37.109-0.567,55.661-0.919
			c15.071-0.285,31.581-1.038,44.368-10.016c10.831-7.605,16.817-19.555,26.507-28.282c6.541-5.891,14.003-6.877,22.544-7.186
			c10.497-0.38,21-0.575,31.501-0.826c20.778-0.497,41.556-1.023,62.336-1.48C495.159,399.227,494.614,402.987,494.08,406.986z"/>
	</g>
</g>
<g>
	<g>
		<path d="M313.315,459.497c-4.523-2.823-11.53-1.53-16.574-1.604c-7.021-0.103-14.036-0.162-21.058-0.021
			c-9.901,0.2-19.744,0.876-29.576,1.834c-5.125,0.114-10.251,0.25-15.377,0.427c-8.956,0.309-21.227-0.492-27.066,7.874
			c-4.67,6.692-0.92,14.121,6.336,16.477c4.089,1.328,8.514,1.201,12.753,1.22c6.841,0.029,13.682,0.036,20.523,0.055
			c12.998,0.034,25.996,0.069,38.994,0.104c10.056,0.027,21.921,1.074,29.868-6.39C317.339,474.59,320.72,464.12,313.315,459.497z
			 M306.876,473.167c-6.072,6.398-17.685,4.724-25.631,4.77c-19.155,0.111-38.31,0.222-57.465,0.333
			c-3.666,0.021-7.662,0.429-11.247-0.556c-7.338-2.016-2.226-8.144,2.628-9.63c5.252-1.607,11.185-1.942,17.04-2.054
			c0.139,0.011,0.28,0.021,0.435,0.01c0.126-0.009,0.252-0.016,0.378-0.025c3.445-0.055,6.852-0.049,10.062-0.196
			c10.995-0.501,21.998-0.892,33.003-1.202c4.218,0.017,8.433,0.072,12.641,0.173c4.687,0.113,9.362,0.288,14.034,0.674
			c1.989,0.164,4.977-0.275,6.131,1.409C310.225,468.829,308.213,471.757,306.876,473.167z"/>
	</g>
</g>
<g>
</g>
<g>
</g>
<g>
</g>
<g>
</g>
<g>
</g>
<g>
</g>
<g>
</g>
<g>
</g>
<g>
</g>
<g>
</g>
<g>
</g>
<g>
</g>
<g>
</g>
<g>
</g>
<g>
</g>
</svg>
