<?xml version="1.0" encoding="iso-8859-1"?>
<!-- Generator: Adobe Illustrator 19.0.0, SVG Export Plug-In . SVG Version: 6.00 Build 0)  -->
<svg xmlns="http://www.w3.org/2000/svg" xmlns:xlink="http://www.w3.org/1999/xlink" version="1.1" id="Capa_1" x="0px" y="0px" viewBox="0 0 511.989 511.989" style="enable-background:new 0 0 511.989 511.989;" xml:space="preserve" width="512" height="512">
<g>
	<g>
		<g>
			<path style="fill:#EBEEF2;" d="M501.141,151.88L316.444,45.246c-3.213-1.855-7.321-0.754-9.175,2.459L147.738,324.02     c-1.855,3.212-0.754,7.321,2.459,9.175L334.893,439.83c3.213,1.855,7.321,0.754,9.175-2.459l159.531-276.316     C505.454,157.843,504.353,153.735,501.141,151.88z"/>
			<path style="fill:#D1D6DE;" d="M306.177,83.068h-19.325L147.738,324.02c-1.855,3.212-0.754,7.321,2.458,9.175l179.838,103.83     v-330.1C330.034,93.749,319.353,83.068,306.177,83.068z"/>
			<g>
				<polygon style="fill:#D1D6DE;" points="414.849,102.06 316.444,45.246 316.444,45.245     "/>
			</g>
		</g>
		<g>
			<path style="fill:#48CFB7;" d="M282.51,470.9H61.048c-13.176,0-23.857-10.681-23.857-23.857V100.1     c0-13.176,10.681-23.857,23.857-23.857H282.51c13.176,0,23.857,10.681,23.857,23.857v346.943     C306.367,460.219,295.686,470.9,282.51,470.9z"/>
			<path style="fill:#35B5A0;" d="M282.51,72.996H257.01c13.176,0,23.857,10.681,23.857,23.857v346.943     c0,13.176-10.681,23.857-23.857,23.857h25.501c13.176,0,23.857-10.681,23.857-23.857V96.853     C306.367,83.677,295.686,72.996,282.51,72.996z"/>
			<g>
				<path style="fill:#F2DF33;" d="M7.5,123.232v19.434c0,1.789,1.45,3.239,3.239,3.239h52.905c1.789,0,3.239-1.45,3.239-3.239      v-19.434c0-1.789-1.45-3.239-3.239-3.239H10.739C8.95,119.993,7.5,121.443,7.5,123.232z"/>
				<path style="fill:#F2DF33;" d="M7.5,245.777v19.434c0,1.789,1.45,3.239,3.239,3.239h52.905c1.789,0,3.239-1.45,3.239-3.239      v-19.434c0-1.789-1.45-3.239-3.239-3.239H10.739C8.95,242.538,7.5,243.988,7.5,245.777z"/>
				<path style="fill:#F2DF33;" d="M7.5,368.321v19.434c0,1.789,1.45,3.239,3.239,3.239h52.905c1.789,0,3.239-1.45,3.239-3.239      v-19.434c0-1.789-1.45-3.239-3.239-3.239H10.739C8.95,365.082,7.5,366.533,7.5,368.321z"/>
			</g>
			<path style="fill:#FCD0AE;" d="M227.031,191.986H116.527c-2.981,0-5.398-2.417-5.398-5.398V147.61     c0-2.981,2.417-5.398,5.398-5.398h110.504c2.981,0,5.398,2.417,5.398,5.398v38.978     C232.43,189.569,230.013,191.986,227.031,191.986z"/>
		</g>
	</g>
	<g>
		<path d="M504.89,145.383L320.201,38.759c-3.291-1.906-7.127-2.413-10.798-1.43c-3.673,0.985-6.74,3.344-8.627,6.628    l-12.728,22.041c-1.799-0.322-3.647-0.5-5.537-0.5H156.94c-4.142,0-7.5,3.357-7.5,7.5s3.358,7.5,7.5,7.5h125.57    c9.021,0,16.36,7.334,16.36,16.35v346.95c0,9.016-7.339,16.351-16.36,16.351H61.05c-9.021,0-16.36-7.335-16.36-16.351v-45.304    h18.954c5.921,0,10.739-4.817,10.739-10.739v-19.435c0-5.921-4.817-10.738-10.739-10.738H10.739C4.817,357.583,0,362.4,0,368.321    v19.435c0,5.922,4.817,10.739,10.739,10.739H29.69v45.304c0,17.287,14.068,31.351,31.36,31.351h221.46    c17.292,0,31.36-14.063,31.36-31.351V307.929l47.71,27.545c1.181,0.682,2.471,1.006,3.743,1.006c2.592,0,5.113-1.345,6.502-3.751    c2.071-3.587,0.842-8.174-2.745-10.245l-55.21-31.875v-23.21l65.26,37.675c1.182,0.682,2.471,1.006,3.743,1.006    c2.592,0,5.113-1.345,6.502-3.751c2.071-3.588,0.842-8.175-2.745-10.245l-72.76-42.005V226.87l82.81,47.814    c1.182,0.682,2.471,1.006,3.744,1.006c2.591,0,5.113-1.345,6.502-3.751c2.071-3.587,0.842-8.174-2.745-10.245l-90.311-52.146    v-23.209l100.36,57.945c1.181,0.682,2.471,1.006,3.743,1.006c2.592,0,5.113-1.345,6.502-3.751    c2.071-3.587,0.842-8.174-2.745-10.245l-107.86-62.275v-72.17c0-10.015-4.727-18.94-12.062-24.684l11.565-20.026l183.342,105.846    L337.944,432.978c-3.462-1.548-7.608-0.26-9.548,3.099c-2.072,3.586-0.845,8.174,2.742,10.246c2.23,1.289,4.669,1.901,7.08,1.901    c4.915-0.001,9.707-2.549,12.347-7.105l159.538-276.324C513.999,158.015,511.665,149.31,504.89,145.383z M15,372.583h44.383    v10.912H15V372.583z"/>
		<path d="M430.955,155.172l-82.268-47.497c-3.588-2.071-8.174-0.843-10.245,2.745c-2.071,3.587-0.842,8.174,2.745,10.245    l82.268,47.497c1.181,0.682,2.471,1.006,3.743,1.006c2.592,0,5.113-1.345,6.502-3.751    C435.771,161.83,434.542,157.243,430.955,155.172z"/>
		<path d="M10.739,153.406H29.69v55.593c0,4.143,3.358,7.5,7.5,7.5s7.5-3.357,7.5-7.5v-55.593h18.954    c5.921,0,10.739-4.817,10.739-10.739v-19.435c0-5.922-4.817-10.739-10.739-10.739H44.69V96.848c0-9.016,7.339-16.35,16.36-16.35    h65.9c4.142,0,7.5-3.357,7.5-7.5s-3.358-7.5-7.5-7.5h-65.9c-17.292,0-31.36,14.063-31.36,31.35v15.645H10.739    C4.817,112.493,0,117.31,0,123.232v19.435C0,148.589,4.817,153.406,10.739,153.406z M15,127.493h44.383v10.913H15V127.493z"/>
		<path d="M10.739,275.95h18.952v59.254c0,4.143,3.358,7.5,7.5,7.5s7.5-3.357,7.5-7.5V275.95h18.953    c5.921,0,10.739-4.817,10.739-10.738v-19.435c0-5.922-4.817-10.739-10.739-10.739H10.739C4.817,235.038,0,239.855,0,245.777    v19.435C0,271.133,4.817,275.95,10.739,275.95z M15,250.038h44.383v10.912H15V250.038z"/>
		<path d="M103.629,147.61v38.978c0,7.112,5.786,12.898,12.898,12.898h110.504c7.112,0,12.898-5.786,12.898-12.898V147.61    c0-7.112-5.786-12.898-12.898-12.898H116.527C109.415,134.712,103.629,140.498,103.629,147.61z M118.629,149.712H224.93v34.774    H118.629V149.712z"/>
	</g>
</g>















</svg>
