<?xml version="1.0" encoding="iso-8859-1"?>
<!-- Generator: Adobe Illustrator 19.0.0, SVG Export Plug-In . SVG Version: 6.00 Build 0)  -->
<svg version="1.1" id="Layer_1" xmlns="http://www.w3.org/2000/svg" xmlns:xlink="http://www.w3.org/1999/xlink" x="0px" y="0px"
	 viewBox="0 0 512 512" style="enable-background:new 0 0 512 512;" xml:space="preserve">
<g>
	<g>
		<g>
			<path d="M153.6,247.916h-10.779c-4.466,0-8.084,3.619-8.084,8.084c0,4.466,3.618,8.084,8.084,8.084H153.6
				c4.466,0,8.084-3.619,8.084-8.084C161.684,251.534,158.066,247.916,153.6,247.916z"/>
			<path d="M379.884,142.436c10.442,0,18.936-8.494,18.936-18.936c0-3.431-0.932-6.799-2.698-9.742l-36.868-61.445
				c-3.402-5.672-9.623-9.195-16.238-9.195h-1.568c-6.614,0-12.837,3.523-16.237,9.194l-36.869,61.446
				c-1.766,2.943-2.698,6.311-2.698,9.742c0,10.442,8.494,18.936,18.936,18.936H379.884z M301.812,123.499
				c0-0.501,0.137-0.994,0.395-1.424l36.868-61.448c0.497-0.828,1.407-1.343,2.373-1.343h1.568c0.967,0,1.877,0.514,2.374,1.344
				l36.867,61.448c0.258,0.43,0.395,0.923,0.395,1.424c0,1.526-1.242,2.768-2.768,2.768h-75.305
				C303.052,126.268,301.811,125.025,301.812,123.499z"/>
			<path d="M110.484,247.916H99.705c-4.466,0-8.084,3.619-8.084,8.084c0,4.466,3.618,8.084,8.084,8.084h10.779
				c4.466,0,8.084-3.619,8.084-8.084C118.568,251.534,114.95,247.916,110.484,247.916z"/>
			<path d="M196.716,264.084c4.466,0,8.084-3.619,8.084-8.084c0-4.466-3.618-8.084-8.084-8.084h-10.779
				c-4.466,0-8.084,3.619-8.084,8.084c0,4.466,3.618,8.084,8.084,8.084H196.716z"/>
			<path d="M188.632,164.379v-21.558c0-4.466-3.618-8.084-8.084-8.084c-4.466,0-8.084,3.618-8.084,8.084v21.558
				c0,4.466,3.618,8.084,8.084,8.084C185.013,172.463,188.632,168.845,188.632,164.379z"/>
			<path d="M220.968,191.326v-75.453c0-4.466-3.619-8.084-8.084-8.084h-32.338c-4.466,0-8.084,3.618-8.084,8.084
				c0,4.466,3.618,8.084,8.084,8.084H204.8v59.284H91.621v-59.284h56.589c4.466,0,8.084-3.618,8.084-8.084
				c0-4.466-3.618-8.084-8.084-8.084H83.537c-4.466,0-8.084,3.618-8.084,8.084v75.453c0,4.466,3.619,8.084,8.084,8.084h129.347
				C217.35,199.411,220.968,195.792,220.968,191.326z"/>
			<path d="M148.211,134.737c-4.466,0-8.084,3.618-8.084,8.084v21.558c0,4.466,3.618,8.084,8.084,8.084
				c4.466,0,8.084-3.618,8.084-8.084v-21.558C156.295,138.355,152.676,134.737,148.211,134.737z"/>
			<path d="M107.79,142.821v21.558c0,4.466,3.618,8.084,8.084,8.084c4.466,0,8.084-3.618,8.084-8.084v-21.558
				c0-4.466-3.618-8.084-8.084-8.084C111.408,134.737,107.79,138.355,107.79,142.821z"/>
			<path d="M482.358,495.832h-13.474V29.642C468.884,13.298,455.586,0,439.242,0H245.221c-16.344,0-29.642,13.298-29.642,29.642
				V51.2c0,4.466,3.618,8.084,8.084,8.084c4.466,0,8.084-3.619,8.084-8.084V29.642c0-7.43,6.044-13.474,13.474-13.474h194.021
				c7.43,0,13.474,6.044,13.474,13.474v142.821H277.558c-4.466,0-8.084,3.619-8.084,8.084c0,4.466,3.618,8.084,8.084,8.084h175.158
				v199.411H256c-4.466,0-8.084,3.618-8.084,8.084c0,4.466,3.619,8.084,8.084,8.084h196.716v91.621h-45.81
				c-4.466,0-8.084,3.619-8.084,8.084c0,4.466,3.618,8.084,8.084,8.084h75.453c4.466,0,8.084-3.618,8.084-8.084
				C490.442,499.45,486.824,495.832,482.358,495.832z"/>
			<path d="M396.126,274.863c16.344,0,29.642-13.298,29.642-29.642s-13.298-29.642-29.642-29.642
				c-16.344,0-29.642,13.298-29.642,29.642S379.782,274.863,396.126,274.863z M396.126,231.747c7.43,0,13.474,6.044,13.474,13.474
				s-6.044,13.474-13.474,13.474c-7.43,0-13.474-6.044-13.474-13.474S388.696,231.747,396.126,231.747z"/>
			<path d="M374.568,495.832H231.747V320.674c0-4.466-3.618-8.084-8.084-8.084c-4.466,0-8.084,3.618-8.084,8.084v35.032h-40.421
				c-1.486,0-2.695-1.208-2.695-2.695v-24.444c9.13-1.312,16.168-9.185,16.168-18.671v-13.474h45.811
				c10.401,0,18.863-8.463,18.863-18.863V94.316c0-10.401-8.463-18.863-18.863-18.863H61.979c-10.401,0-18.863,8.463-18.863,18.863
				v183.242c0,10.401,8.463,18.863,18.863,18.863h45.811v13.474c0,9.487,7.039,17.359,16.168,18.671v24.444
				c0,28.231,22.969,51.2,51.2,51.2h40.421v91.621H29.642c-4.466,0-8.084,3.619-8.084,8.084c0,4.466,3.618,8.084,8.084,8.084
				h344.926c4.466,0,8.084-3.618,8.084-8.084C382.653,499.45,379.034,495.832,374.568,495.832z M61.979,280.253
				c-1.486,0-2.695-1.208-2.695-2.695v-45.811h13.474c4.466,0,8.084-3.618,8.084-8.084c0-4.466-3.618-8.084-8.084-8.084H59.284
				V94.316c0-1.486,1.208-2.695,2.695-2.695h172.463c1.486,0,2.695,1.208,2.695,2.695v121.263H105.095
				c-4.466,0-8.084,3.618-8.084,8.084c0,4.466,3.618,8.084,8.084,8.084h132.042v45.811c0,1.486-1.208,2.695-2.695,2.695h-53.895
				H61.979z M126.653,312.589c-1.486,0-2.695-1.208-2.695-2.695v-13.474h48.505v13.474c0,1.486-1.208,2.695-2.695,2.695h-5.389
				H126.653z M215.579,388.042h-40.421c-19.317,0-35.032-15.715-35.032-35.032v-24.253h16.168v24.253
				c0,10.401,8.463,18.863,18.863,18.863h40.421V388.042z"/>
			<path d="M342.232,114.719c4.466,0,8.084-3.619,8.084-8.084v-13.86c0-4.466-3.618-8.084-8.084-8.084
				c-4.466,0-8.084,3.618-8.084,8.084v13.858C334.147,111.1,337.766,114.719,342.232,114.719z"/>
			<path d="M331.453,274.863c10.401,0,18.863-8.463,18.863-18.863v-21.558c0-10.401-8.463-18.863-18.863-18.863h-32.337
				c-10.401,0-18.863,8.463-18.863,18.863V256c0,10.401,8.463,18.863,18.863,18.863H331.453z M296.421,256v-21.558
				c0-1.486,1.208-2.695,2.695-2.695h32.337c1.486,0,2.695,1.208,2.695,2.695V256c0,1.486-1.208,2.695-2.695,2.695h-32.337
				C297.629,258.695,296.421,257.486,296.421,256z"/>
			<path d="M258.695,320.674v21.558c0,10.401,8.463,18.863,18.863,18.863h53.895c10.401,0,18.863-8.463,18.863-18.863v-21.558
				c0-10.401-8.463-18.863-18.863-18.863h-53.895C267.157,301.811,258.695,310.273,258.695,320.674z M334.147,320.674v21.558
				c0,1.486-1.208,2.695-2.695,2.695h-53.895c-1.486,0-2.695-1.208-2.695-2.695v-21.558c0-1.486,1.208-2.695,2.695-2.695h53.895
				C332.939,317.979,334.147,319.187,334.147,320.674z"/>
			<path d="M385.347,458.105h-86.232c-4.466,0-8.084,3.618-8.084,8.084c0,4.466,3.619,8.084,8.084,8.084h86.232
				c4.466,0,8.084-3.618,8.084-8.084C393.432,461.724,389.813,458.105,385.347,458.105z"/>
			<path d="M385.347,425.768h-86.232c-4.466,0-8.084,3.618-8.084,8.084c0,4.466,3.619,8.084,8.084,8.084h86.232
				c4.466,0,8.084-3.618,8.084-8.084C393.432,429.387,389.813,425.768,385.347,425.768z"/>
			<path d="M396.126,361.095c16.344,0,29.642-13.298,29.642-29.642s-13.298-29.642-29.642-29.642
				c-16.344,0-29.642,13.298-29.642,29.642S379.782,361.095,396.126,361.095z M396.126,317.979c7.43,0,13.474,6.044,13.474,13.474
				s-6.044,13.474-13.474,13.474c-7.43,0-13.474-6.044-13.474-13.474S388.696,317.979,396.126,317.979z"/>
		</g>
	</g>
</g>
<g>
</g>
<g>
</g>
<g>
</g>
<g>
</g>
<g>
</g>
<g>
</g>
<g>
</g>
<g>
</g>
<g>
</g>
<g>
</g>
<g>
</g>
<g>
</g>
<g>
</g>
<g>
</g>
<g>
</g>
</svg>
