<?xml version="1.0" encoding="iso-8859-1"?>
<!-- Generator: Adobe Illustrator 19.0.0, SVG Export Plug-In . SVG Version: 6.00 Build 0)  -->
<svg version="1.1" id="Layer_1" xmlns="http://www.w3.org/2000/svg" xmlns:xlink="http://www.w3.org/1999/xlink" x="0px" y="0px"
	 viewBox="0 0 512.001 512.001" style="enable-background:new 0 0 512.001 512.001;" xml:space="preserve">
<g>
	<g>
		<path d="M350.063,0H59.324C26.613,0,0.001,26.612,0.001,59.324c0,32.711,26.612,59.324,59.324,59.324h26.112
			c-0.035,56.276-0.072,126.327-0.088,191.22c-0.001,4.427,3.586,8.018,8.015,8.019c0.001,0,0.001,0,0.002,0
			c4.427,0,8.016-3.588,8.017-8.015c0.016-64.894,0.053-134.948,0.088-191.223h248.594c17.064,0,32.457-7.251,43.29-18.823v36.46
			c0,4.427,3.588,8.017,8.017,8.017c4.428,0,8.017-3.589,8.017-8.017v-76.96C409.387,26.612,382.775,0,350.063,0z M59.324,102.614
			c-23.871,0-43.29-19.42-43.29-43.29s19.42-43.29,43.29-43.29h250.239c-11.572,10.833-18.823,26.226-18.823,43.29
			c0,17.064,7.251,32.457,18.823,43.29H59.324z M350.063,102.614c-23.871,0-43.29-19.42-43.29-43.29s19.42-43.29,43.29-43.29
			s43.29,19.42,43.29,43.29S373.934,102.614,350.063,102.614z"/>
	</g>
</g>
<g>
	<g>
		<path d="M350.063,25.653c-18.566,0-33.67,15.105-33.67,33.67s15.104,33.67,33.67,33.67s33.67-15.104,33.67-33.67
			S368.629,25.653,350.063,25.653z M350.063,76.96c-9.725,0-17.637-7.912-17.637-17.637s7.912-17.637,17.637-17.637
			S367.7,49.599,367.7,59.324S359.788,76.96,350.063,76.96z"/>
	</g>
</g>
<g>
	<g>
		<path d="M452.677,393.353c-17.064,0-32.457,7.251-43.29,18.823V170.489c0-4.427-3.588-8.017-8.017-8.017
			c-4.428,0-8.017,3.589-8.017,8.017v282.188c0,12.67,4.155,25.201,11.731,35.356c2.119,2.839,4.485,5.511,7.071,7.934H144.687
			c-23.85,0-43.27-19.4-43.29-43.246c-0.023-29.671-0.029-69.82-0.022-113.913c0.001-4.428-3.587-8.018-8.016-8.018c0,0,0,0-0.001,0
			c-4.427,0-8.016,3.588-8.017,8.016c-0.008,44.099-0.002,84.255,0.022,113.929c0.026,32.68,26.639,59.267,59.324,59.267h307.99
			c32.711,0,59.324-26.612,59.324-59.324S485.388,393.353,452.677,393.353z M452.677,495.967c-23.87,0-43.29-19.42-43.29-43.29
			c0-23.87,19.42-43.29,43.29-43.29c23.871,0,43.29,19.42,43.29,43.29C495.967,476.547,476.547,495.967,452.677,495.967z"/>
	</g>
</g>
<g>
	<g>
		<path d="M452.677,419.006c-18.566,0-33.67,15.105-33.67,33.67c0,18.566,15.105,33.67,33.67,33.67
			c18.566,0,33.67-15.105,33.67-33.67C486.347,434.111,471.243,419.006,452.677,419.006z M452.677,470.313
			c-9.725,0-17.637-7.912-17.637-17.637c0-9.725,7.912-17.637,17.637-17.637c9.725,0,17.637,7.912,17.637,17.637
			C470.314,462.401,462.402,470.313,452.677,470.313z"/>
	</g>
</g>
<g>
	<g>
		<path d="M187.591,153.921c-37.426,0-67.875,30.448-67.875,67.875s30.448,67.875,67.875,67.875s67.875-30.448,67.875-67.875
			S225.018,153.921,187.591,153.921z M187.591,273.637c-28.585,0-51.841-23.256-51.841-51.841s23.256-51.841,51.841-51.841
			s51.841,23.256,51.841,51.841S216.177,273.637,187.591,273.637z"/>
	</g>
</g>
<g>
	<g>
		<path d="M218.914,199.025c-3.132-3.131-8.207-3.131-11.339,0l-28.535,28.536l-11.433-11.434c-3.132-3.131-8.207-3.131-11.338,0
			s-3.131,8.207,0,11.337l17.102,17.102c3.089,3.088,8.249,3.088,11.338,0l34.205-34.205
			C222.045,207.231,222.045,202.154,218.914,199.025z"/>
	</g>
</g>
<g>
	<g>
		<path d="M307.307,324.944c-37.426,0-67.875,30.448-67.875,67.875c0,37.426,30.449,67.875,67.875,67.875
			c37.426,0,67.875-30.448,67.875-67.875C375.182,355.392,344.734,324.944,307.307,324.944z M307.307,444.66
			c-28.585,0-51.841-23.256-51.841-51.841c0-28.585,23.256-51.841,51.841-51.841s51.841,23.256,51.841,51.841
			C359.149,421.404,335.893,444.66,307.307,444.66z"/>
	</g>
</g>
<g>
	<g>
		<path d="M318.645,392.818l19.985-19.985c3.131-3.131,3.131-8.207,0-11.337c-3.132-3.131-8.207-3.131-11.338,0l-19.985,19.984
			l-19.984-19.984c-3.132-3.131-8.207-3.131-11.338,0c-3.131,3.131-3.131,8.207,0,11.337l19.985,19.985l-19.985,19.985
			c-3.131,3.13-3.131,8.207-0.001,11.337c3.089,3.088,8.249,3.088,11.338,0l19.984-19.984l19.984,19.984
			c3.261,3.26,8.766,3.041,11.764-0.46c2.686-3.137,2.493-7.959-0.425-10.877L318.645,392.818z"/>
	</g>
</g>
<g>
	<g>
		<path d="M350.063,179.574h-68.409c-4.428,0-8.017,3.589-8.017,8.017s3.588,8.017,8.017,8.017h68.409
			c4.428,0,8.017-3.589,8.017-8.017S354.492,179.574,350.063,179.574z"/>
	</g>
</g>
<g>
	<g>
		<path d="M350.063,213.779h-68.409c-4.428,0-8.017,3.589-8.017,8.017s3.588,8.017,8.017,8.017h68.409
			c4.428,0,8.017-3.589,8.017-8.017S354.492,213.779,350.063,213.779z"/>
	</g>
</g>
<g>
	<g>
		<path d="M350.063,247.983h-68.409c-4.428,0-8.017,3.589-8.017,8.017s3.588,8.017,8.017,8.017h68.409
			c4.428,0,8.017-3.589,8.017-8.017S354.492,247.983,350.063,247.983z"/>
	</g>
</g>
<g>
	<g>
		<path d="M213.245,359.148h-68.409c-4.428,0-8.017,3.589-8.017,8.017c0,4.427,3.588,8.017,8.017,8.017h68.409
			c4.428,0,8.017-3.589,8.017-8.017C221.262,362.738,217.673,359.148,213.245,359.148z"/>
	</g>
</g>
<g>
	<g>
		<path d="M213.245,393.353h-68.409c-4.428,0-8.017,3.589-8.017,8.017c0,4.427,3.588,8.017,8.017,8.017h68.409
			c4.428,0,8.017-3.589,8.017-8.017C221.262,396.942,217.673,393.353,213.245,393.353z"/>
	</g>
</g>
<g>
	<g>
		<path d="M213.245,427.557h-68.409c-4.428,0-8.017,3.589-8.017,8.017c0,4.427,3.588,8.017,8.017,8.017h68.409
			c4.428,0,8.017-3.589,8.017-8.017C221.262,431.147,217.673,427.557,213.245,427.557z"/>
	</g>
</g>
<g>
</g>
<g>
</g>
<g>
</g>
<g>
</g>
<g>
</g>
<g>
</g>
<g>
</g>
<g>
</g>
<g>
</g>
<g>
</g>
<g>
</g>
<g>
</g>
<g>
</g>
<g>
</g>
<g>
</g>
</svg>
