<?xml version="1.0" encoding="iso-8859-1"?>
<!-- Generator: Adobe Illustrator 21.0.0, SVG Export Plug-In . SVG Version: 6.00 Build 0)  -->
<svg version="1.1" id="Capa_1" xmlns="http://www.w3.org/2000/svg" xmlns:xlink="http://www.w3.org/1999/xlink" x="0px" y="0px"
	 viewBox="0 0 512 512" style="enable-background:new 0 0 512 512;" xml:space="preserve">
<path style="fill:#F9E8C5;" d="M408.298,360.203c0,0,8.016-72.141,24.047-88.172c12.674-12.674,32.063,0,32.063,0L440.361,384.25
	l-80.156,88.172l-1.002,32.063h-39.076V400.281L408.298,360.203z"/>
<path style="fill:#FAEDD1;" d="M448.376,336.156c0,0,8.016-72.141,24.047-88.172c12.674-12.674,32.063,0,32.063,0l-24.047,112.219
	l-80.156,88.172l-1.002,56.109h-79.154V392.265L448.376,336.156z"/>
<path style="fill:#F7E4B9;" d="M478.893,243.705c5.555,1.666,9.561,4.278,9.561,4.278l-24.047,104.203l-80.156,88.172l-1.002,64.125
	h16.031l1.002-56.109l80.156-88.172l24.047-112.219C504.486,247.984,490.788,239.034,478.893,243.705z"/>
<path style="fill:#FAEDD1;" d="M305.097,504.484l-0.819-98.197c-0.115-13.842,6.918-26.758,18.605-34.176
	c10.94-6.943,26.336-16.541,45.336-27.941c7.685-4.611,48.094-8.016,48.094,16.031c-32.063,24.047-64.125,56.109-64.125,56.109
	v88.172H305.097z"/>
<path style="fill:#F7E4B9;" d="M352.189,416.312c0,0,32.063-32.063,64.125-56.109c0-10.469-7.661-15.734-16.945-17.962
	c0.474,1.578,0.731,3.314,0.731,5.225c-32.063,24.047-64.125,56.109-64.125,56.109L352.189,416.312z"/>
<path style="fill:#F9E8C5;" d="M103.704,360.203c0,0-8.016-72.141-24.047-88.172c-12.674-12.674-32.063,0-32.063,0L71.641,384.25
	l80.156,88.172l1.002,32.063h39.076V400.281L103.704,360.203z"/>
<path style="fill:#FAEDD1;" d="M63.626,336.156c0,0-8.016-72.141-24.047-88.172c-12.674-12.674-32.063,0-32.063,0l24.047,112.219
	l80.156,88.172l1.002,56.109h79.154V392.265L63.626,336.156z"/>
<path style="fill:#F7E4B9;" d="M33.108,243.705c-5.555,1.666-9.561,4.278-9.561,4.278l24.047,104.203l80.156,88.172l1.002,64.125
	h-16.031l-1.002-56.109l-80.156-88.172L7.516,247.984C7.516,247.984,21.214,239.034,33.108,243.705z"/>
<path style="fill:#FAEDD1;" d="M206.905,504.484l0.819-98.197c0.115-13.842-6.917-26.758-18.605-34.176
	c-10.94-6.943-26.336-16.541-45.336-27.941c-7.685-4.611-48.094-8.016-48.094,16.031c32.063,24.047,64.125,56.109,64.125,56.109
	v88.172H206.905z"/>
<path style="fill:#F7E4B9;" d="M112.632,342.24c-9.284,2.228-16.945,7.493-16.945,17.962c32.063,24.047,64.125,56.109,64.125,56.109
	l16.214-12.737c0,0-32.063-32.063-64.125-56.109C111.902,345.554,112.158,343.818,112.632,342.24z"/>
<rect x="119.734" y="7.515" style="fill:#FFE07E;" width="272.532" height="272.532"/>
<rect x="119.734" y="7.515" style="fill:#FFD653;" width="24.047" height="272.532"/>
<polygon style="fill:#EBB645;" points="231.954,63.624 256.001,55.608 280.048,63.624 280.048,7.515 231.954,7.515 "/>
<rect x="119.734" y="135.764" style="fill:#F6F6F7;" width="128.25" height="32.063"/>
<rect x="119.734" y="135.764" style="fill:#ECEDEF;" width="24.047" height="32.063"/>
<path d="M508.597,241.694c-9.099-5.948-28.076-12.436-41.488,0.977c-3.87,3.87-7.272,10.226-10.233,17.855
	c-11.677-3.457-22.33-1.324-29.845,6.192c-9.142,9.141-16.82,32.368-22.854,69.086c-14.48-4.522-33.273-2.006-39.824,1.925
	c-15.962,9.577-31.269,19.011-45.498,28.04c-13.97,8.867-22.23,24.039-22.092,40.582l0.818,98.197
	c0.034,4.129,3.393,7.453,7.514,7.453c0.021,0,0.042,0,0.063,0c4.15-0.034,7.487-3.427,7.453-7.577l-0.818-98.197
	c-0.095-11.319,5.557-21.7,15.116-27.768c14.123-8.962,29.322-18.329,45.168-27.837c3.495-1.993,22.115-4.326,31.804,1.302
	c2.277,1.324,3.71,2.907,4.408,4.936c-30.865,23.676-60.138,52.865-61.416,54.142c-2.935,2.935-2.935,7.692,0,10.627
	c2.935,2.935,7.693,2.936,10.627,0.001c0.317-0.317,32.075-31.977,63.321-55.412c3.498-2.623,3.289-7.038,2.55-10.918l28.015-12.256
	c2.461-1.076,4.159-3.385,4.457-6.054c2.991-26.883,11.581-73.377,21.892-83.688c5.32-5.318,13.271-3.32,18.197-1.264
	l-22.418,104.614l-78.794,86.673c-1.226,1.349-1.921,3.098-1.953,4.921l-1.002,56.109c-0.073,4.15,3.23,7.574,7.379,7.648
	c0.046,0,0.091,0.001,0.137,0.001c4.087,0,7.438-3.277,7.511-7.38l0.951-53.282l78.255-86.079c0.893-0.982,1.509-2.182,1.787-3.481
	l24.047-112.219C512.484,246.52,511.198,243.394,508.597,241.694z M441.421,330.996l-22.855,9.999
	c5.32-33.308,12.38-56.94,19.092-63.65c4.064-4.064,9.599-3.951,14.52-2.556C446.178,295.997,442.715,320.608,441.421,330.996z"/>
<path d="M193.144,365.767c-14.228-9.029-29.536-18.463-45.497-28.04c-6.551-3.931-25.343-6.447-39.824-1.925
	c-6.033-36.719-13.712-59.945-22.854-69.086c-7.517-7.517-18.17-9.649-29.845-6.192c-2.962-7.628-6.364-13.984-10.234-17.855
	c-13.412-13.412-32.389-6.924-41.487-0.977c-2.601,1.7-3.888,4.826-3.236,7.864l24.047,112.219c0.279,1.298,0.896,2.499,1.787,3.481
	l78.255,86.079l0.951,53.282c0.073,4.104,3.423,7.38,7.511,7.38c0.046,0,0.092,0,0.137-0.001c4.15-0.074,7.453-3.498,7.379-7.648
	l-1.002-56.109c-0.032-1.823-0.727-3.572-1.953-4.921l-78.794-86.673L16.061,251.998c4.905-2.077,12.821-4.083,18.204,1.3
	c10.312,10.312,18.901,56.805,21.893,83.688c0.298,2.669,1.996,4.978,4.457,6.054l28.015,12.256
	c-0.738,3.881-0.948,8.294,2.55,10.918c31.247,23.435,63.004,55.094,63.321,55.412c2.933,2.934,7.691,2.936,10.627-0.001
	c2.935-2.935,2.935-7.692,0-10.627c-1.277-1.276-30.551-30.464-61.416-54.142c0.697-2.029,2.13-3.612,4.408-4.936
	c9.688-5.628,28.308-3.295,31.796-1.307c15.854,9.513,31.054,18.88,45.175,27.841c9.561,6.068,15.213,16.449,15.117,27.768
	l-0.818,98.197c-0.034,4.15,3.302,7.543,7.453,7.577c0.021,0,0.042,0,0.063,0c4.121,0,7.48-3.323,7.514-7.453l0.818-98.197
	C215.376,389.807,207.117,374.635,193.144,365.767z M59.821,274.787c4.923-1.395,10.457-1.508,14.522,2.557
	c6.71,6.71,13.771,30.342,19.091,63.65l-22.855-9.999C69.286,320.608,65.823,295.997,59.821,274.787z"/>
<path d="M392.267,287.561c4.151,0,7.515-3.365,7.515-7.515v-179.35c0-4.15-3.364-7.515-7.515-7.515
	c-4.151,0-7.515,3.365-7.515,7.515v171.835h-49.096v-30.452l11.218,11.219c3.057,3.056,8.217,2.851,11.028-0.431
	c2.518-2.941,2.337-7.461-0.399-10.196l-24.047-24.047c-2.936-2.935-7.693-2.935-10.628,0l-24.047,24.047
	c-2.935,2.935-2.935,7.693,0,10.627c2.936,2.935,7.693,2.935,10.628,0l11.218-11.219v30.452h-57.111v-30.452l11.218,11.219
	c3.057,3.056,8.217,2.851,11.028-0.431c2.518-2.941,2.337-7.461-0.399-10.196l-24.047-24.047c-2.936-2.935-7.693-2.935-10.628,0
	l-24.047,24.047c-2.935,2.935-2.935,7.693,0,10.627c2.936,2.935,7.693,2.935,10.628,0l11.218-11.219v30.452h-57.111v-30.452
	l11.218,11.219c3.057,3.056,8.217,2.851,11.028-0.431c2.518-2.941,2.337-7.461-0.399-10.196l-24.047-24.047
	c-2.936-2.935-7.693-2.935-10.628,0L154.5,242.671c-2.935,2.935-2.935,7.693,0,10.627c2.936,2.935,7.693,2.935,10.628,0
	l11.218-11.219v30.452H127.25v-97.19h120.736c4.151,0,7.515-3.365,7.515-7.515v-32.063c0-4.15-3.364-7.515-7.515-7.515H127.25
	v-17.033h80.657c4.151,0,7.515-3.365,7.515-7.515c0-4.15-3.364-7.515-7.515-7.515H127.25V15.029h97.19v48.595
	c0,5.042,5.101,8.723,9.891,7.129l21.67-7.223l21.67,7.223c4.792,1.596,9.891-2.09,9.891-7.129V15.029h97.19v50.265
	c0,4.15,3.364,7.515,7.515,7.515c4.151,0,7.515-3.365,7.515-7.515V7.515c0-4.15-3.364-7.515-7.515-7.515H119.735
	c-4.151,0-7.515,3.365-7.515,7.515v272.532c0,4.15,3.364,7.515,7.515,7.515H392.267z M272.533,15.029v38.168l-14.156-4.718
	c-1.535-0.511-3.218-0.511-4.753,0l-14.156,4.718V15.029H272.533z M240.471,143.28v17.033H127.25V143.28H240.471z"/>
<path d="M231.954,96.188c-4.151,0-7.515,3.365-7.515,7.515c0,4.15,3.364,7.515,7.515,7.515h16.031c4.151,0,7.515-3.365,7.515-7.515
	c0-4.15-3.364-7.515-7.515-7.515H231.954z"/>
<g>
</g>
<g>
</g>
<g>
</g>
<g>
</g>
<g>
</g>
<g>
</g>
<g>
</g>
<g>
</g>
<g>
</g>
<g>
</g>
<g>
</g>
<g>
</g>
<g>
</g>
<g>
</g>
<g>
</g>
</svg>
