<?xml version="1.0" encoding="iso-8859-1"?>
<!-- Generator: Adobe Illustrator 19.0.0, SVG Export Plug-In . SVG Version: 6.00 Build 0)  -->
<svg version="1.1" id="Layer_1" xmlns="http://www.w3.org/2000/svg" xmlns:xlink="http://www.w3.org/1999/xlink" x="0px" y="0px"
	 viewBox="0 0 512 512" style="enable-background:new 0 0 512 512;" xml:space="preserve">
<path style="fill:#5D7EAC;" d="M175.158,363.789h70.063v32.337h-70.063c-23.812,0-43.116-19.304-43.116-43.116v-53.895h32.337
	v53.895C164.379,358.964,169.205,363.789,175.158,363.789z"/>
<path style="fill:#344966;" d="M245.221,363.789v16.168h-5.389h-59.284h-5.389c-14.859,0-26.947-12.089-26.947-26.947v-53.895h5.389
	h5.389h5.389v53.895c0,5.953,4.826,10.779,10.779,10.779h64.674H245.221z"/>
<path style="fill:#FFD34E;" d="M169.768,320.674h-43.116c-5.953,0-10.779-4.826-10.779-10.779v-32.337h64.674v32.337
	C180.547,315.848,175.722,320.674,169.768,320.674z"/>
<path style="fill:#FFB933;" d="M180.547,277.558v32.337c0,5.953-4.826,10.779-10.779,10.779h-21.558
	c5.953,0,10.779-4.826,10.779-10.779v-32.337H180.547z"/>
<path style="fill:#5D7EAC;" d="M223.663,29.642c0-11.906,9.651-21.558,21.558-21.558h194.021c11.906,0,21.558,9.651,21.558,21.558
	v474.274H223.663V29.642z"/>
<path style="fill:#809DED;" d="M428.463,503.916h-204.8V29.642c0-11.906,9.651-21.558,21.558-21.558h183.242V503.916z"/>
<path style="fill:#6D6D6D;" d="M460.8,396.126H223.663V180.547H460.8V396.126z"/>
<path style="fill:#444444;" d="M460.8,396.126h-32.337V180.547H460.8V396.126z"/>
<path style="fill:#FFD34E;" d="M352.322,56.469l36.868,61.446c1.012,1.687,1.547,3.616,1.547,5.583l0,0
	c0,5.994-4.859,10.852-10.852,10.852H304.58c-5.994,0-10.852-4.859-10.852-10.852l0,0c0-1.967,0.535-3.897,1.547-5.583
	l36.868-61.446c1.962-3.269,5.494-5.269,9.305-5.269h1.569C346.829,51.2,350.361,53.201,352.322,56.469z"/>
<path style="fill:#E53B00;" d="M417.684,331.453c0,11.906-9.651,21.558-21.558,21.558c-11.906,0-21.558-9.651-21.558-21.558
	c0-11.906,9.651-21.558,21.558-21.558C408.033,309.895,417.684,319.546,417.684,331.453z M396.126,266.779
	c11.906,0,21.558-9.651,21.558-21.558s-9.651-21.558-21.558-21.558c-11.906,0-21.558,9.651-21.558,21.558
	S384.22,266.779,396.126,266.779z"/>
<path style="fill:#FF6600;" d="M406.905,331.453c0,10.042-6.876,18.455-16.168,20.851c-9.293-2.396-16.168-10.809-16.168-20.851
	c0-10.042,6.876-18.455,16.168-20.851C400.029,312.998,406.905,321.411,406.905,331.453z M390.737,266.072
	c9.293-2.396,16.168-10.809,16.168-20.851s-6.876-18.455-16.168-20.851c-9.293,2.396-16.168,10.809-16.168,20.851
	S381.444,263.676,390.737,266.072z"/>
<path style="fill:#AACE80;" d="M342.232,320.674v21.558c0,5.953-4.826,10.779-10.779,10.779h-53.895
	c-5.953,0-10.779-4.826-10.779-10.779v-21.558c0-5.953,4.826-10.779,10.779-10.779h53.895
	C337.406,309.895,342.232,314.72,342.232,320.674z M331.453,223.663h-32.337c-5.953,0-10.779,4.826-10.779,10.779V256
	c0,5.953,4.826,10.779,10.779,10.779h32.337c5.953,0,10.779-4.826,10.779-10.779v-21.558
	C342.232,228.489,337.406,223.663,331.453,223.663z"/>
<path style="fill:#C1E296;" d="M309.895,223.663v43.116h-10.779c-5.953,0-10.779-4.826-10.779-10.779v-21.558
	c0-5.953,4.826-10.779,10.779-10.779H309.895z M288.337,353.01h21.558v-43.116h-21.558V353.01z"/>
<path style="fill:#344966;" d="M234.442,288.337H61.979c-5.953,0-10.779-4.826-10.779-10.779v-53.895h194.021v53.895
	C245.221,283.511,240.395,288.337,234.442,288.337z"/>
<path style="fill:#5D7EAC;" d="M245.221,94.316v129.347h-21.558v53.895c0,5.953-4.826,10.779-10.779,10.779H61.979
	c-5.953,0-10.779-4.826-10.779-10.779v-53.895V94.316c0-5.953,4.826-10.779,10.779-10.779h172.463
	C240.395,83.537,245.221,88.363,245.221,94.316z"/>
<path style="fill:#809DED;" d="M223.663,223.663H51.2V94.316c0-5.953,4.826-10.779,10.779-10.779h150.905
	c5.953,0,10.779,4.826,10.779,10.779V223.663z"/>
<path style="fill:#FFE473;" d="M212.884,191.326H83.537v-75.453h129.347V191.326z"/>
<path d="M161.684,256c0,4.466-3.618,8.084-8.084,8.084h-10.779c-4.466,0-8.084-3.618-8.084-8.084s3.618-8.084,8.084-8.084H153.6
	C158.066,247.916,161.684,251.534,161.684,256z M196.716,264.084c4.466,0,8.084-3.618,8.084-8.084s-3.618-8.084-8.084-8.084h-10.779
	c-4.466,0-8.084,3.618-8.084,8.084s3.618,8.084,8.084,8.084H196.716z M110.484,247.916H99.705c-4.466,0-8.084,3.618-8.084,8.084
	s3.618,8.084,8.084,8.084h10.779c4.466,0,8.084-3.618,8.084-8.084S114.95,247.916,110.484,247.916z M148.211,134.737
	c-4.466,0-8.084,3.618-8.084,8.084v21.558c0,4.466,3.618,8.084,8.084,8.084c4.466,0,8.084-3.618,8.084-8.084v-21.558
	C156.295,138.355,152.676,134.737,148.211,134.737z M220.968,191.326v-75.453c0-4.466-3.618-8.084-8.084-8.084h-32.338
	c-4.466,0-8.084,3.618-8.084,8.084s3.618,8.084,8.084,8.084H204.8v59.284H91.621v-59.284h56.589c4.466,0,8.084-3.618,8.084-8.084
	s-3.618-8.084-8.084-8.084H83.537c-4.466,0-8.084,3.618-8.084,8.084v75.453c0,4.466,3.618,8.084,8.084,8.084h129.347
	C217.35,199.411,220.968,195.792,220.968,191.326z M107.789,142.821v21.558c0,4.466,3.618,8.084,8.084,8.084
	s8.084-3.618,8.084-8.084v-21.558c0-4.466-3.618-8.084-8.084-8.084S107.789,138.355,107.789,142.821z M188.632,164.379v-21.558
	c0-4.466-3.618-8.084-8.084-8.084c-4.466,0-8.084,3.618-8.084,8.084v21.558c0,4.466,3.618,8.084,8.084,8.084
	C185.013,172.463,188.632,168.845,188.632,164.379z M382.653,503.916c0,4.466-3.618,8.084-8.084,8.084H29.642
	c-4.466,0-8.084-3.618-8.084-8.084s3.618-8.084,8.084-8.084h185.937v-91.621h-40.421c-28.231,0-51.2-22.969-51.2-51.2v-24.444
	c-9.13-1.312-16.168-9.185-16.168-18.671v-13.474H61.979c-10.401,0-18.863-8.463-18.863-18.863V94.316
	c0-10.401,8.463-18.863,18.863-18.863h172.463c10.401,0,18.863,8.463,18.863,18.863v183.242c0,10.401-8.463,18.863-18.863,18.863
	h-45.811v13.474c0,9.487-7.039,17.36-16.168,18.671v24.444c0,1.486,1.208,2.695,2.695,2.695h40.421v-35.032
	c0-4.466,3.618-8.084,8.084-8.084s8.084,3.618,8.084,8.084v175.158h142.821C379.034,495.832,382.653,499.45,382.653,503.916z
	 M180.547,280.253h53.895c1.486,0,2.695-1.208,2.695-2.695v-45.811H105.095c-4.466,0-8.084-3.618-8.084-8.084
	s3.618-8.084,8.084-8.084h132.042V94.316c0-1.486-1.208-2.695-2.695-2.695H61.979c-1.486,0-2.695,1.208-2.695,2.695v121.263h13.474
	c4.466,0,8.084,3.618,8.084,8.084s-3.618,8.084-8.084,8.084H59.284v45.811c0,1.486,1.208,2.695,2.695,2.695H180.547z
	 M164.379,312.589h5.389c1.486,0,2.695-1.208,2.695-2.695v-13.474h-48.505v13.474c0,1.486,1.208,2.695,2.695,2.695H164.379z
	 M215.579,371.874h-40.421c-10.401,0-18.863-8.463-18.863-18.863v-24.253h-16.168v24.253c0,19.317,15.715,35.032,35.032,35.032
	h40.421V371.874z M366.484,245.221c0-16.344,13.298-29.642,29.642-29.642c16.344,0,29.642,13.298,29.642,29.642
	s-13.298,29.642-29.642,29.642C379.782,274.863,366.484,261.565,366.484,245.221z M382.653,245.221
	c0,7.43,6.044,13.474,13.474,13.474c7.43,0,13.474-6.044,13.474-13.474s-6.044-13.474-13.474-13.474
	C388.696,231.747,382.653,237.791,382.653,245.221z M366.484,331.453c0-16.344,13.298-29.642,29.642-29.642
	c16.344,0,29.642,13.298,29.642,29.642c0,16.344-13.298,29.642-29.642,29.642C379.782,361.095,366.484,347.797,366.484,331.453z
	 M382.653,331.453c0,7.43,6.044,13.474,13.474,13.474c7.43,0,13.474-6.044,13.474-13.474s-6.044-13.474-13.474-13.474
	C388.696,317.979,382.653,324.023,382.653,331.453z M342.232,114.719c4.466,0,8.084-3.618,8.084-8.084v-13.86
	c0-4.466-3.618-8.084-8.084-8.084s-8.084,3.618-8.084,8.084v13.858C334.147,111.1,337.766,114.719,342.232,114.719z
	 M304.579,142.436c-10.443,0-18.936-8.495-18.936-18.936c0-3.431,0.932-6.799,2.698-9.742l36.869-61.446
	c3.401-5.672,9.623-9.194,16.237-9.194h1.568c6.615,0,12.837,3.524,16.238,9.196l36.868,61.445c1.766,2.943,2.698,6.311,2.698,9.742
	c0,10.443-8.495,18.936-18.936,18.936H304.579z M304.579,126.268h75.305c1.526,0,2.768-1.242,2.768-2.768
	c0-0.501-0.137-0.994-0.395-1.424L345.39,60.628c-0.497-0.83-1.407-1.344-2.374-1.344h-1.568c-0.967,0-1.877,0.515-2.374,1.343
	l-36.868,61.448c-0.258,0.43-0.395,0.923-0.395,1.424C301.811,125.025,303.052,126.268,304.579,126.268z M482.358,495.832h-13.474
	V29.642C468.884,13.298,455.586,0,439.242,0H245.221c-16.344,0-29.642,13.298-29.642,29.642V51.2c0,4.466,3.618,8.084,8.084,8.084
	s8.084-3.618,8.084-8.084V29.642c0-7.43,6.044-13.474,13.474-13.474h194.021c7.43,0,13.474,6.044,13.474,13.474v142.821H277.558
	c-4.466,0-8.084,3.618-8.084,8.084c0,4.466,3.618,8.084,8.084,8.084h175.158v199.411H256c-4.466,0-8.084,3.618-8.084,8.084
	c0,4.466,3.618,8.084,8.084,8.084h196.716v91.621h-45.811c-4.466,0-8.084,3.618-8.084,8.084S402.44,512,406.905,512h75.453
	c4.466,0,8.084-3.618,8.084-8.084S486.824,495.832,482.358,495.832z M385.347,425.768h-86.232c-4.466,0-8.084,3.618-8.084,8.084
	c0,4.466,3.618,8.084,8.084,8.084h86.232c4.466,0,8.084-3.618,8.084-8.084C393.432,429.387,389.813,425.768,385.347,425.768z
	 M299.116,274.863c-10.401,0-18.863-8.463-18.863-18.863v-21.558c0-10.401,8.463-18.863,18.863-18.863h32.337
	c10.401,0,18.863,8.463,18.863,18.863V256c0,10.401-8.463,18.863-18.863,18.863H299.116z M299.116,258.695h32.337
	c1.486,0,2.695-1.208,2.695-2.695v-21.558c0-1.486-1.208-2.695-2.695-2.695h-32.337c-1.486,0-2.695,1.208-2.695,2.695V256
	C296.421,257.486,297.629,258.695,299.116,258.695z M385.347,458.105h-86.232c-4.466,0-8.084,3.618-8.084,8.084
	s3.618,8.084,8.084,8.084h86.232c4.466,0,8.084-3.618,8.084-8.084S389.813,458.105,385.347,458.105z M277.558,301.811h53.895
	c10.401,0,18.863,8.463,18.863,18.863v21.558c0,10.401-8.463,18.863-18.863,18.863h-53.895c-10.401,0-18.863-8.463-18.863-18.863
	v-21.558C258.695,310.273,267.157,301.811,277.558,301.811z M331.453,317.979h-53.895c-1.486,0-2.695,1.208-2.695,2.695v21.558
	c0,1.486,1.208,2.695,2.695,2.695h53.895c1.486,0,2.695-1.208,2.695-2.695v-21.558C334.147,319.187,332.939,317.979,331.453,317.979
	z"/>
<g>
</g>
<g>
</g>
<g>
</g>
<g>
</g>
<g>
</g>
<g>
</g>
<g>
</g>
<g>
</g>
<g>
</g>
<g>
</g>
<g>
</g>
<g>
</g>
<g>
</g>
<g>
</g>
<g>
</g>
</svg>
